G04 #@! TF.FileFunction,Copper,L2,Bot,Signal*
%FSLAX46Y46*%
G04 Gerber Fmt 4.6, Leading zero omitted, Abs format (unit mm)*
G04 Created by KiCad (PCBNEW 4.0.7) date Thursday, April 11, 2019 'PMt' 06:08:24 PM*
%MOMM*%
%LPD*%
G01*
G04 APERTURE LIST*
%ADD10C,0.100000*%
%ADD11R,1.500000X1.250000*%
%ADD12R,1.250000X1.500000*%
%ADD13R,0.500000X2.000000*%
%ADD14R,2.000000X1.700000*%
%ADD15R,1.300000X1.500000*%
%ADD16R,1.500000X1.300000*%
%ADD17C,2.200000*%
%ADD18R,1.600000X1.400000*%
%ADD19R,0.550000X1.500000*%
%ADD20R,1.500000X0.550000*%
%ADD21R,1.600000X1.300000*%
%ADD22C,1.800000*%
%ADD23C,3.400000*%
%ADD24R,1.524000X1.524000*%
%ADD25C,1.524000*%
%ADD26C,0.600000*%
%ADD27C,0.250000*%
%ADD28C,0.254000*%
G04 APERTURE END LIST*
D10*
D11*
X136250000Y-95000000D03*
X138750000Y-95000000D03*
D12*
X134500000Y-102250000D03*
X134500000Y-104750000D03*
X146250000Y-115250000D03*
X146250000Y-117750000D03*
X134500000Y-109500000D03*
X134500000Y-107000000D03*
D11*
X152750000Y-103250000D03*
X155250000Y-103250000D03*
D12*
X144750000Y-96750000D03*
X144750000Y-94250000D03*
X152750000Y-108250000D03*
X152750000Y-110750000D03*
X160750000Y-108250000D03*
X160750000Y-110750000D03*
D13*
X140900000Y-75450000D03*
X141700000Y-75450000D03*
X142500000Y-75450000D03*
X143300000Y-75450000D03*
X144100000Y-75450000D03*
D14*
X138050000Y-75350000D03*
X138050000Y-69900000D03*
X146950000Y-75350000D03*
X146950000Y-69900000D03*
D15*
X143750000Y-81850000D03*
X143750000Y-79150000D03*
X141750000Y-81850000D03*
X141750000Y-79150000D03*
D16*
X153650000Y-87500000D03*
X156350000Y-87500000D03*
X139650000Y-115250000D03*
X142350000Y-115250000D03*
D17*
X136000000Y-72500000D03*
X129650000Y-75040000D03*
X156000000Y-72500000D03*
X149650000Y-75040000D03*
X116000000Y-92500000D03*
X109650000Y-95040000D03*
X136000000Y-92500000D03*
X129650000Y-95040000D03*
X156000000Y-92500000D03*
X149650000Y-95040000D03*
X116000000Y-112500000D03*
X109650000Y-115040000D03*
X136000000Y-112500000D03*
X129650000Y-115040000D03*
X156000000Y-112500000D03*
X149650000Y-115040000D03*
D18*
X153650000Y-81250000D03*
X160850000Y-81250000D03*
X153650000Y-84250000D03*
X160850000Y-84250000D03*
D19*
X139500000Y-100300000D03*
X140300000Y-100300000D03*
X141100000Y-100300000D03*
X141900000Y-100300000D03*
X142700000Y-100300000D03*
X143500000Y-100300000D03*
X144300000Y-100300000D03*
X145100000Y-100300000D03*
X145900000Y-100300000D03*
X146700000Y-100300000D03*
X147500000Y-100300000D03*
D20*
X149200000Y-102000000D03*
X149200000Y-102800000D03*
X149200000Y-103600000D03*
X149200000Y-104400000D03*
X149200000Y-105200000D03*
X149200000Y-106000000D03*
X149200000Y-106800000D03*
X149200000Y-107600000D03*
X149200000Y-108400000D03*
X149200000Y-109200000D03*
X149200000Y-110000000D03*
D19*
X147500000Y-111700000D03*
X146700000Y-111700000D03*
X145900000Y-111700000D03*
X145100000Y-111700000D03*
X144300000Y-111700000D03*
X143500000Y-111700000D03*
X142700000Y-111700000D03*
X141900000Y-111700000D03*
X141100000Y-111700000D03*
X140300000Y-111700000D03*
X139500000Y-111700000D03*
D20*
X137800000Y-110000000D03*
X137800000Y-109200000D03*
X137800000Y-108400000D03*
X137800000Y-107600000D03*
X137800000Y-106800000D03*
X137800000Y-106000000D03*
X137800000Y-105200000D03*
X137800000Y-104400000D03*
X137800000Y-103600000D03*
X137800000Y-102800000D03*
X137800000Y-102000000D03*
D21*
X155100000Y-108000000D03*
X158400000Y-108000000D03*
X158400000Y-110000000D03*
X155100000Y-110000000D03*
D15*
X129000000Y-102150000D03*
X129000000Y-104850000D03*
X131250000Y-102150000D03*
X131250000Y-104850000D03*
D22*
X109000000Y-69000000D03*
X109000000Y-83500000D03*
X111500000Y-83500000D03*
X114000000Y-83500000D03*
X114000000Y-69000000D03*
D23*
X117100000Y-76000000D03*
X105900000Y-76000000D03*
D24*
X150540000Y-88770000D03*
D25*
X150540000Y-86230000D03*
X148000000Y-88770000D03*
X148000000Y-86230000D03*
X145460000Y-88770000D03*
X145460000Y-86230000D03*
D26*
X147250000Y-104500000D03*
X140250000Y-109000000D03*
X141000000Y-109750000D03*
X142000000Y-109000000D03*
X142750000Y-109750000D03*
X143500000Y-109000000D03*
X145000000Y-109000000D03*
X144250000Y-109750000D03*
X146000000Y-109750000D03*
X146500000Y-106750000D03*
X147250000Y-107750000D03*
X147250000Y-102000000D03*
D27*
X140300000Y-100300000D02*
X140300000Y-107200000D01*
X139000000Y-110000000D02*
X137800000Y-110000000D01*
X139250000Y-109750000D02*
X139000000Y-110000000D01*
X139250000Y-108250000D02*
X139250000Y-109750000D01*
X140300000Y-107200000D02*
X139250000Y-108250000D01*
X140300000Y-100300000D02*
X140300000Y-107050000D01*
X146700000Y-108200000D02*
X146700000Y-111700000D01*
X146250000Y-107750000D02*
X146700000Y-108200000D01*
X141000000Y-107750000D02*
X146250000Y-107750000D01*
X140300000Y-107050000D02*
X141000000Y-107750000D01*
X140300000Y-100300000D02*
X140300000Y-102800000D01*
X141100000Y-103600000D02*
X149200000Y-103600000D01*
X140300000Y-102800000D02*
X141100000Y-103600000D01*
X140300000Y-100300000D02*
X140300000Y-101300000D01*
X144300000Y-101450000D02*
X144300000Y-100300000D01*
X143750000Y-102000000D02*
X144300000Y-101450000D01*
X141000000Y-102000000D02*
X143750000Y-102000000D01*
X140300000Y-101300000D02*
X141000000Y-102000000D01*
X140300000Y-100300000D02*
X140300000Y-101200000D01*
X139500000Y-102000000D02*
X137800000Y-102000000D01*
X140300000Y-101200000D02*
X139500000Y-102000000D01*
X140900000Y-75450000D02*
X140900000Y-77850000D01*
X140300000Y-78450000D02*
X140300000Y-100300000D01*
X140900000Y-77850000D02*
X140300000Y-78450000D01*
X156350000Y-84100000D02*
X156350000Y-87500000D01*
X155000000Y-82750000D02*
X156350000Y-84100000D01*
X152000000Y-82750000D02*
X155000000Y-82750000D01*
X156350000Y-87500000D02*
X156350000Y-89350000D01*
X155000000Y-101000000D02*
X152750000Y-103250000D01*
X158250000Y-101000000D02*
X155000000Y-101000000D01*
X160750000Y-98500000D02*
X158250000Y-101000000D01*
X160750000Y-93750000D02*
X160750000Y-98500000D01*
X156350000Y-89350000D02*
X160750000Y-93750000D01*
X149200000Y-103600000D02*
X152400000Y-103600000D01*
X152400000Y-103600000D02*
X152750000Y-103250000D01*
X137800000Y-110000000D02*
X135000000Y-110000000D01*
X137800000Y-102000000D02*
X134750000Y-102000000D01*
X135000000Y-110000000D02*
X134500000Y-109500000D01*
X134750000Y-102000000D02*
X134500000Y-102250000D01*
X146700000Y-111700000D02*
X146700000Y-114800000D01*
X146700000Y-114800000D02*
X146250000Y-115250000D01*
X136250000Y-95000000D02*
X136250000Y-98000000D01*
X140300000Y-99300000D02*
X140300000Y-100300000D01*
X140000000Y-99000000D02*
X140300000Y-99300000D01*
X137250000Y-99000000D02*
X140000000Y-99000000D01*
X136250000Y-98000000D02*
X137250000Y-99000000D01*
X150500000Y-86460000D02*
X150500000Y-84250000D01*
X150500000Y-84250000D02*
X152000000Y-82750000D01*
X142700000Y-100300000D02*
X142700000Y-98550000D01*
X142700000Y-98550000D02*
X143500000Y-97750000D01*
X143500000Y-97750000D02*
X143500000Y-95500000D01*
X143500000Y-95500000D02*
X144750000Y-94250000D01*
X145460000Y-86230000D02*
X145460000Y-77960000D01*
X144100000Y-77100000D02*
X144100000Y-75450000D01*
X144250000Y-77250000D02*
X144100000Y-77100000D01*
X144750000Y-77250000D02*
X144250000Y-77250000D01*
X145460000Y-77960000D02*
X144750000Y-77250000D01*
X134500000Y-107000000D02*
X136250000Y-107000000D01*
X136700000Y-109200000D02*
X137800000Y-109200000D01*
X136500000Y-109000000D02*
X136700000Y-109200000D01*
X136500000Y-107250000D02*
X136500000Y-109000000D01*
X136250000Y-107000000D02*
X136500000Y-107250000D01*
X134500000Y-104750000D02*
X136250000Y-104750000D01*
X136700000Y-102800000D02*
X137800000Y-102800000D01*
X136500000Y-103000000D02*
X136700000Y-102800000D01*
X136500000Y-104500000D02*
X136500000Y-103000000D01*
X136250000Y-104750000D02*
X136500000Y-104500000D01*
X147350000Y-104400000D02*
X149200000Y-104400000D01*
X147250000Y-104500000D02*
X147350000Y-104400000D01*
X144750000Y-94250000D02*
X144750000Y-90000000D01*
X149200000Y-104400000D02*
X154100000Y-104400000D01*
X154100000Y-104400000D02*
X155250000Y-103250000D01*
X137750000Y-109250000D02*
X137800000Y-109200000D01*
X137750000Y-102750000D02*
X137800000Y-102800000D01*
X144750000Y-90000000D02*
X144250000Y-89500000D01*
X144250000Y-87380000D02*
X145420000Y-86210000D01*
X144250000Y-89500000D02*
X144250000Y-87380000D01*
X143500000Y-100300000D02*
X143500000Y-99000000D01*
X144750000Y-97750000D02*
X144750000Y-96750000D01*
X143500000Y-99000000D02*
X144750000Y-97750000D01*
X152750000Y-108250000D02*
X152750000Y-107500000D01*
X152750000Y-107500000D02*
X151250000Y-106000000D01*
X151250000Y-106000000D02*
X149200000Y-106000000D01*
X152750000Y-108250000D02*
X154850000Y-108250000D01*
X154850000Y-108250000D02*
X155100000Y-108000000D01*
X160750000Y-108250000D02*
X160750000Y-107250000D01*
X158700000Y-105200000D02*
X149200000Y-105200000D01*
X160750000Y-107250000D02*
X158700000Y-105200000D01*
X158400000Y-110000000D02*
X159000000Y-110000000D01*
X159000000Y-110000000D02*
X160750000Y-108250000D01*
X141900000Y-100300000D02*
X141900000Y-98100000D01*
X143750000Y-84000000D02*
X143750000Y-81850000D01*
X142750000Y-85000000D02*
X143750000Y-84000000D01*
X142750000Y-97250000D02*
X142750000Y-85000000D01*
X141900000Y-98100000D02*
X142750000Y-97250000D01*
X142500000Y-75450000D02*
X142500000Y-77900000D01*
X142500000Y-77900000D02*
X143750000Y-79150000D01*
X141750000Y-81850000D02*
X141750000Y-97250000D01*
X141100000Y-97900000D02*
X141100000Y-100300000D01*
X141750000Y-97250000D02*
X141100000Y-97900000D01*
X141700000Y-75450000D02*
X141700000Y-79100000D01*
X141700000Y-79100000D02*
X141750000Y-79150000D01*
X139500000Y-111700000D02*
X139500000Y-115100000D01*
X139500000Y-115100000D02*
X139650000Y-115250000D01*
X150540000Y-89020000D02*
X150540000Y-93290000D01*
X148700000Y-100300000D02*
X147500000Y-100300000D01*
X149750000Y-99250000D02*
X148700000Y-100300000D01*
X149750000Y-97500000D02*
X149750000Y-99250000D01*
X151500000Y-95750000D02*
X149750000Y-97500000D01*
X151500000Y-94250000D02*
X151500000Y-95750000D01*
X150540000Y-93290000D02*
X151500000Y-94250000D01*
X145900000Y-94600000D02*
X145900000Y-100300000D01*
X148000000Y-92500000D02*
X145900000Y-94600000D01*
X148000000Y-89020000D02*
X148000000Y-92500000D01*
X148000000Y-87000000D02*
X149250000Y-88250000D01*
X149250000Y-88250000D02*
X149250000Y-93000000D01*
X148000000Y-86480000D02*
X148000000Y-87000000D01*
X149250000Y-93000000D02*
X146700000Y-95550000D01*
X146700000Y-95550000D02*
X146700000Y-100300000D01*
X145420000Y-88750000D02*
X145420000Y-88580000D01*
X145420000Y-88580000D02*
X146750000Y-87250000D01*
X146750000Y-87250000D02*
X146750000Y-85500000D01*
X146750000Y-85500000D02*
X147250000Y-85000000D01*
X147250000Y-85000000D02*
X148750000Y-85000000D01*
X148750000Y-85000000D02*
X149250000Y-85500000D01*
X149250000Y-85500000D02*
X149250000Y-87250000D01*
X149250000Y-87250000D02*
X149500000Y-87500000D01*
X149500000Y-87500000D02*
X153650000Y-87500000D01*
X153400000Y-87750000D02*
X153650000Y-87500000D01*
X153400000Y-87750000D02*
X153650000Y-87500000D01*
X153650000Y-87500000D02*
X153650000Y-87650000D01*
X153650000Y-87650000D02*
X160000000Y-94000000D01*
X160000000Y-94000000D02*
X160000000Y-98250000D01*
X153650000Y-84250000D02*
X153650000Y-87500000D01*
X150450000Y-102800000D02*
X149200000Y-102800000D01*
X153000000Y-100250000D02*
X150450000Y-102800000D01*
X158000000Y-100250000D02*
X153000000Y-100250000D01*
X160000000Y-98250000D02*
X158000000Y-100250000D01*
X140300000Y-109050000D02*
X140300000Y-111700000D01*
X140250000Y-109000000D02*
X140300000Y-109050000D01*
X141100000Y-109850000D02*
X141100000Y-111700000D01*
X141000000Y-109750000D02*
X141100000Y-109850000D01*
X141900000Y-109100000D02*
X141900000Y-111700000D01*
X142000000Y-109000000D02*
X141900000Y-109100000D01*
X142750000Y-109750000D02*
X142700000Y-109800000D01*
X142700000Y-109800000D02*
X142700000Y-111700000D01*
X143500000Y-109000000D02*
X143500000Y-111700000D01*
X145100000Y-109100000D02*
X145100000Y-111700000D01*
X145000000Y-109000000D02*
X145100000Y-109100000D01*
X144300000Y-109800000D02*
X144300000Y-111700000D01*
X144250000Y-109750000D02*
X144300000Y-109800000D01*
X145900000Y-109850000D02*
X145900000Y-111700000D01*
X146000000Y-109750000D02*
X145900000Y-109850000D01*
X146500000Y-106750000D02*
X146550000Y-106800000D01*
X146550000Y-106800000D02*
X149200000Y-106800000D01*
X147250000Y-107750000D02*
X147400000Y-107600000D01*
X147400000Y-107600000D02*
X149200000Y-107600000D01*
X147250000Y-102000000D02*
X149200000Y-102000000D01*
X131250000Y-104850000D02*
X129000000Y-104850000D01*
X131250000Y-102150000D02*
X132100000Y-102150000D01*
X133950000Y-100300000D02*
X139500000Y-100300000D01*
X132100000Y-102150000D02*
X133950000Y-100300000D01*
D28*
G36*
X107453542Y-68759336D02*
X107479161Y-69369460D01*
X107663357Y-69814148D01*
X107919841Y-69900554D01*
X108820395Y-69000000D01*
X108806253Y-68985858D01*
X108985858Y-68806253D01*
X109000000Y-68820395D01*
X109014143Y-68806253D01*
X109193748Y-68985858D01*
X109179605Y-69000000D01*
X110080159Y-69900554D01*
X110336643Y-69814148D01*
X110546458Y-69240664D01*
X110520839Y-68630540D01*
X110450199Y-68460000D01*
X112562154Y-68460000D01*
X112465267Y-68693330D01*
X112464735Y-69303991D01*
X112697932Y-69868371D01*
X113129357Y-70300551D01*
X113693330Y-70534733D01*
X114303991Y-70535265D01*
X114868371Y-70302068D01*
X115300551Y-69870643D01*
X115534733Y-69306670D01*
X115535265Y-68696009D01*
X115437748Y-68460000D01*
X136794229Y-68460000D01*
X136598559Y-68585910D01*
X136453569Y-68798110D01*
X136402560Y-69050000D01*
X136402560Y-70750000D01*
X136410424Y-70791792D01*
X136346627Y-70765301D01*
X135656401Y-70764699D01*
X135018485Y-71028281D01*
X134529996Y-71515918D01*
X134265301Y-72153373D01*
X134264699Y-72843599D01*
X134528281Y-73481515D01*
X135015918Y-73970004D01*
X135653373Y-74234699D01*
X136343599Y-74235301D01*
X136509024Y-74166949D01*
X136453569Y-74248110D01*
X136402560Y-74500000D01*
X136402560Y-76200000D01*
X136446838Y-76435317D01*
X136585910Y-76651441D01*
X136798110Y-76796431D01*
X137050000Y-76847440D01*
X137236251Y-76847440D01*
X137055258Y-77283319D01*
X137054743Y-77874089D01*
X137280344Y-78420086D01*
X137697717Y-78838188D01*
X138243319Y-79064742D01*
X138834089Y-79065257D01*
X139380086Y-78839656D01*
X139540000Y-78680021D01*
X139540000Y-93740000D01*
X139035750Y-93740000D01*
X138877000Y-93898750D01*
X138877000Y-94873000D01*
X138897000Y-94873000D01*
X138897000Y-95127000D01*
X138877000Y-95127000D01*
X138877000Y-95147000D01*
X138623000Y-95147000D01*
X138623000Y-95127000D01*
X138603000Y-95127000D01*
X138603000Y-94873000D01*
X138623000Y-94873000D01*
X138623000Y-93898750D01*
X138464250Y-93740000D01*
X137873691Y-93740000D01*
X137640302Y-93836673D01*
X137499064Y-93977910D01*
X137464090Y-93923559D01*
X137251890Y-93778569D01*
X137187969Y-93765625D01*
X137470004Y-93484082D01*
X137734699Y-92846627D01*
X137735301Y-92156401D01*
X137471719Y-91518485D01*
X136984082Y-91029996D01*
X136346627Y-90765301D01*
X135656401Y-90764699D01*
X135018485Y-91028281D01*
X134529996Y-91515918D01*
X134265301Y-92153373D01*
X134264699Y-92843599D01*
X134528281Y-93481515D01*
X135011325Y-93965403D01*
X134903569Y-94123110D01*
X134852560Y-94375000D01*
X134852560Y-95305105D01*
X133986433Y-94945458D01*
X132938166Y-94944543D01*
X131969342Y-95344853D01*
X131227458Y-96085443D01*
X130825458Y-97053567D01*
X130824543Y-98101834D01*
X131224853Y-99070658D01*
X131965443Y-99812542D01*
X132933567Y-100214542D01*
X132960632Y-100214566D01*
X132282433Y-100892765D01*
X132151890Y-100803569D01*
X131900000Y-100752560D01*
X130600000Y-100752560D01*
X130364683Y-100796838D01*
X130148559Y-100935910D01*
X130122327Y-100974302D01*
X130009699Y-100861673D01*
X129776310Y-100765000D01*
X129285750Y-100765000D01*
X129127000Y-100923750D01*
X129127000Y-102023000D01*
X129147000Y-102023000D01*
X129147000Y-102277000D01*
X129127000Y-102277000D01*
X129127000Y-102297000D01*
X128873000Y-102297000D01*
X128873000Y-102277000D01*
X127873750Y-102277000D01*
X127715000Y-102435750D01*
X127715000Y-103026309D01*
X127811673Y-103259698D01*
X127990301Y-103438327D01*
X128126287Y-103494654D01*
X128114683Y-103496838D01*
X127898559Y-103635910D01*
X127753569Y-103848110D01*
X127702560Y-104100000D01*
X127702560Y-105600000D01*
X127746838Y-105835317D01*
X127885910Y-106051441D01*
X128098110Y-106196431D01*
X128350000Y-106247440D01*
X129650000Y-106247440D01*
X129885317Y-106203162D01*
X130101441Y-106064090D01*
X130123384Y-106031975D01*
X130135910Y-106051441D01*
X130348110Y-106196431D01*
X130600000Y-106247440D01*
X131900000Y-106247440D01*
X132135317Y-106203162D01*
X132351441Y-106064090D01*
X132496431Y-105851890D01*
X132547440Y-105600000D01*
X132547440Y-105035750D01*
X133240000Y-105035750D01*
X133240000Y-105626309D01*
X133336673Y-105859698D01*
X133351975Y-105875000D01*
X133336673Y-105890302D01*
X133240000Y-106123691D01*
X133240000Y-106714250D01*
X133398750Y-106873000D01*
X134373000Y-106873000D01*
X134373000Y-104877000D01*
X134627000Y-104877000D01*
X134627000Y-106873000D01*
X135601250Y-106873000D01*
X135760000Y-106714250D01*
X135760000Y-106123691D01*
X135663327Y-105890302D01*
X135648025Y-105875000D01*
X135663327Y-105859698D01*
X135760000Y-105626309D01*
X135760000Y-105035750D01*
X135601250Y-104877000D01*
X134627000Y-104877000D01*
X134373000Y-104877000D01*
X133398750Y-104877000D01*
X133240000Y-105035750D01*
X132547440Y-105035750D01*
X132547440Y-104100000D01*
X132503162Y-103864683D01*
X132364090Y-103648559D01*
X132151890Y-103503569D01*
X132138803Y-103500919D01*
X132351441Y-103364090D01*
X132496431Y-103151890D01*
X132547440Y-102900000D01*
X132547440Y-102747511D01*
X132637401Y-102687401D01*
X133227560Y-102097242D01*
X133227560Y-103000000D01*
X133271838Y-103235317D01*
X133410910Y-103451441D01*
X133479006Y-103497969D01*
X133336673Y-103640302D01*
X133240000Y-103873691D01*
X133240000Y-104464250D01*
X133398750Y-104623000D01*
X134373000Y-104623000D01*
X134373000Y-104603000D01*
X134627000Y-104603000D01*
X134627000Y-104623000D01*
X135601250Y-104623000D01*
X135760000Y-104464250D01*
X135760000Y-103873691D01*
X135663327Y-103640302D01*
X135522090Y-103499064D01*
X135576441Y-103464090D01*
X135721431Y-103251890D01*
X135772440Y-103000000D01*
X135772440Y-102760000D01*
X136635025Y-102760000D01*
X136693397Y-102799884D01*
X136598559Y-102860910D01*
X136509505Y-102991245D01*
X136415000Y-103085750D01*
X136415000Y-103201310D01*
X136423468Y-103221753D01*
X136402560Y-103325000D01*
X136402560Y-103875000D01*
X136426944Y-104004589D01*
X136402560Y-104125000D01*
X136402560Y-104675000D01*
X136426944Y-104804589D01*
X136402560Y-104925000D01*
X136402560Y-105475000D01*
X136426944Y-105604589D01*
X136402560Y-105725000D01*
X136402560Y-106275000D01*
X136426944Y-106404589D01*
X136402560Y-106525000D01*
X136402560Y-107075000D01*
X136426944Y-107204589D01*
X136402560Y-107325000D01*
X136402560Y-107875000D01*
X136426944Y-108004589D01*
X136402560Y-108125000D01*
X136402560Y-108675000D01*
X136422450Y-108780705D01*
X136415000Y-108798690D01*
X136415000Y-108914250D01*
X136511401Y-109010651D01*
X136585910Y-109126441D01*
X136693397Y-109199884D01*
X136631054Y-109240000D01*
X135772440Y-109240000D01*
X135772440Y-108750000D01*
X135728162Y-108514683D01*
X135589090Y-108298559D01*
X135520994Y-108252031D01*
X135663327Y-108109698D01*
X135760000Y-107876309D01*
X135760000Y-107285750D01*
X135601250Y-107127000D01*
X134627000Y-107127000D01*
X134627000Y-107147000D01*
X134373000Y-107147000D01*
X134373000Y-107127000D01*
X133398750Y-107127000D01*
X133240000Y-107285750D01*
X133240000Y-107876309D01*
X133336673Y-108109698D01*
X133477910Y-108250936D01*
X133423559Y-108285910D01*
X133278569Y-108498110D01*
X133227560Y-108750000D01*
X133227560Y-110250000D01*
X133271838Y-110485317D01*
X133410910Y-110701441D01*
X133623110Y-110846431D01*
X133875000Y-110897440D01*
X135125000Y-110897440D01*
X135360317Y-110853162D01*
X135505095Y-110760000D01*
X136635025Y-110760000D01*
X136798110Y-110871431D01*
X137050000Y-110922440D01*
X138550000Y-110922440D01*
X138584454Y-110915957D01*
X138577560Y-110950000D01*
X138577560Y-112450000D01*
X138621838Y-112685317D01*
X138740000Y-112868946D01*
X138740000Y-113982666D01*
X138664683Y-113996838D01*
X138448559Y-114135910D01*
X138303569Y-114348110D01*
X138252560Y-114600000D01*
X138252560Y-115900000D01*
X138289211Y-116094781D01*
X138245911Y-116094743D01*
X137699914Y-116320344D01*
X137281812Y-116737717D01*
X137055258Y-117283319D01*
X137054743Y-117874089D01*
X137280344Y-118420086D01*
X137697717Y-118838188D01*
X138243319Y-119064742D01*
X138834089Y-119065257D01*
X139380086Y-118839656D01*
X139798188Y-118422283D01*
X139958690Y-118035750D01*
X144990000Y-118035750D01*
X144990000Y-118626309D01*
X145086673Y-118859698D01*
X145265301Y-119038327D01*
X145498690Y-119135000D01*
X145964250Y-119135000D01*
X146123000Y-118976250D01*
X146123000Y-117877000D01*
X145148750Y-117877000D01*
X144990000Y-118035750D01*
X139958690Y-118035750D01*
X140024742Y-117876681D01*
X140025257Y-117285911D01*
X139799656Y-116739914D01*
X139607518Y-116547440D01*
X140400000Y-116547440D01*
X140635317Y-116503162D01*
X140851441Y-116364090D01*
X140996431Y-116151890D01*
X141003191Y-116118510D01*
X141061673Y-116259699D01*
X141240302Y-116438327D01*
X141473691Y-116535000D01*
X142064250Y-116535000D01*
X142223000Y-116376250D01*
X142223000Y-115377000D01*
X142477000Y-115377000D01*
X142477000Y-116376250D01*
X142635750Y-116535000D01*
X143226309Y-116535000D01*
X143459698Y-116438327D01*
X143638327Y-116259699D01*
X143735000Y-116026310D01*
X143735000Y-115535750D01*
X143576250Y-115377000D01*
X142477000Y-115377000D01*
X142223000Y-115377000D01*
X142203000Y-115377000D01*
X142203000Y-115123000D01*
X142223000Y-115123000D01*
X142223000Y-114123750D01*
X142477000Y-114123750D01*
X142477000Y-115123000D01*
X143576250Y-115123000D01*
X143735000Y-114964250D01*
X143735000Y-114473690D01*
X143638327Y-114240301D01*
X143459698Y-114061673D01*
X143226309Y-113965000D01*
X142635750Y-113965000D01*
X142477000Y-114123750D01*
X142223000Y-114123750D01*
X142064250Y-113965000D01*
X141473691Y-113965000D01*
X141240302Y-114061673D01*
X141061673Y-114240301D01*
X141005346Y-114376287D01*
X141003162Y-114364683D01*
X140864090Y-114148559D01*
X140651890Y-114003569D01*
X140400000Y-113952560D01*
X140260000Y-113952560D01*
X140260000Y-113097440D01*
X140575000Y-113097440D01*
X140704589Y-113073056D01*
X140825000Y-113097440D01*
X141375000Y-113097440D01*
X141504589Y-113073056D01*
X141625000Y-113097440D01*
X142175000Y-113097440D01*
X142304589Y-113073056D01*
X142425000Y-113097440D01*
X142975000Y-113097440D01*
X143104589Y-113073056D01*
X143225000Y-113097440D01*
X143775000Y-113097440D01*
X143904589Y-113073056D01*
X144025000Y-113097440D01*
X144575000Y-113097440D01*
X144704589Y-113073056D01*
X144825000Y-113097440D01*
X145375000Y-113097440D01*
X145504589Y-113073056D01*
X145625000Y-113097440D01*
X145940000Y-113097440D01*
X145940000Y-113852560D01*
X145625000Y-113852560D01*
X145389683Y-113896838D01*
X145173559Y-114035910D01*
X145028569Y-114248110D01*
X144977560Y-114500000D01*
X144977560Y-116000000D01*
X145021838Y-116235317D01*
X145160910Y-116451441D01*
X145229006Y-116497969D01*
X145086673Y-116640302D01*
X144990000Y-116873691D01*
X144990000Y-117464250D01*
X145148750Y-117623000D01*
X146123000Y-117623000D01*
X146123000Y-117603000D01*
X146377000Y-117603000D01*
X146377000Y-117623000D01*
X146397000Y-117623000D01*
X146397000Y-117877000D01*
X146377000Y-117877000D01*
X146377000Y-118976250D01*
X146535750Y-119135000D01*
X147001310Y-119135000D01*
X147234699Y-119038327D01*
X147413327Y-118859698D01*
X147456102Y-118756430D01*
X147537717Y-118838188D01*
X148083319Y-119064742D01*
X148674089Y-119065257D01*
X149220086Y-118839656D01*
X149638188Y-118422283D01*
X149771250Y-118101834D01*
X150824543Y-118101834D01*
X151224853Y-119070658D01*
X151965443Y-119812542D01*
X152933567Y-120214542D01*
X153981834Y-120215457D01*
X154950658Y-119815147D01*
X155692542Y-119074557D01*
X156094542Y-118106433D01*
X156094744Y-117874089D01*
X157054743Y-117874089D01*
X157280344Y-118420086D01*
X157697717Y-118838188D01*
X158243319Y-119064742D01*
X158834089Y-119065257D01*
X159380086Y-118839656D01*
X159798188Y-118422283D01*
X160024742Y-117876681D01*
X160025257Y-117285911D01*
X159799656Y-116739914D01*
X159382283Y-116321812D01*
X158836681Y-116095258D01*
X158245911Y-116094743D01*
X157699914Y-116320344D01*
X157281812Y-116737717D01*
X157055258Y-117283319D01*
X157054743Y-117874089D01*
X156094744Y-117874089D01*
X156095457Y-117058166D01*
X155695147Y-116089342D01*
X154954557Y-115347458D01*
X153986433Y-114945458D01*
X152938166Y-114944543D01*
X151969342Y-115344853D01*
X151227458Y-116085443D01*
X150825458Y-117053567D01*
X150824543Y-118101834D01*
X149771250Y-118101834D01*
X149864742Y-117876681D01*
X149865257Y-117285911D01*
X149654474Y-116775776D01*
X150051453Y-116762836D01*
X150584359Y-116542099D01*
X150695263Y-116264868D01*
X149650000Y-115219605D01*
X149635858Y-115233748D01*
X149456253Y-115054143D01*
X149470395Y-115040000D01*
X149829605Y-115040000D01*
X150874868Y-116085263D01*
X151152099Y-115974359D01*
X151395323Y-115328407D01*
X151372836Y-114638547D01*
X151152099Y-114105641D01*
X150874868Y-113994737D01*
X149829605Y-115040000D01*
X149470395Y-115040000D01*
X148425132Y-113994737D01*
X148147901Y-114105641D01*
X147904677Y-114751593D01*
X147927164Y-115441453D01*
X148147901Y-115974359D01*
X148425130Y-116085262D01*
X148415362Y-116095030D01*
X148085911Y-116094743D01*
X147539914Y-116320344D01*
X147316447Y-116543421D01*
X147272090Y-116499064D01*
X147326441Y-116464090D01*
X147471431Y-116251890D01*
X147522440Y-116000000D01*
X147522440Y-114500000D01*
X147478162Y-114264683D01*
X147460000Y-114236458D01*
X147460000Y-113815132D01*
X148604737Y-113815132D01*
X149650000Y-114860395D01*
X150695263Y-113815132D01*
X150584359Y-113537901D01*
X149938407Y-113294677D01*
X149248547Y-113317164D01*
X148715641Y-113537901D01*
X148604737Y-113815132D01*
X147460000Y-113815132D01*
X147460000Y-112864975D01*
X147571431Y-112701890D01*
X147622440Y-112450000D01*
X147622440Y-111827000D01*
X147627000Y-111827000D01*
X147627000Y-112926250D01*
X147785750Y-113085000D01*
X147901310Y-113085000D01*
X148134699Y-112988327D01*
X148313327Y-112809698D01*
X148410000Y-112576309D01*
X148410000Y-111985750D01*
X148251250Y-111827000D01*
X147627000Y-111827000D01*
X147622440Y-111827000D01*
X147622440Y-110950000D01*
X147578162Y-110714683D01*
X147460000Y-110531054D01*
X147460000Y-108674901D01*
X147778943Y-108543117D01*
X147802560Y-108519541D01*
X147802560Y-108675000D01*
X147826944Y-108804589D01*
X147802560Y-108925000D01*
X147802560Y-109475000D01*
X147826944Y-109604589D01*
X147802560Y-109725000D01*
X147802560Y-110275000D01*
X147810087Y-110315000D01*
X147785750Y-110315000D01*
X147627000Y-110473750D01*
X147627000Y-111573000D01*
X148251250Y-111573000D01*
X148410000Y-111414250D01*
X148410000Y-111035750D01*
X151490000Y-111035750D01*
X151490000Y-111626309D01*
X151586673Y-111859698D01*
X151765301Y-112038327D01*
X151998690Y-112135000D01*
X152464250Y-112135000D01*
X152623000Y-111976250D01*
X152623000Y-110877000D01*
X151648750Y-110877000D01*
X151490000Y-111035750D01*
X148410000Y-111035750D01*
X148410000Y-110914340D01*
X148450000Y-110922440D01*
X149950000Y-110922440D01*
X150185317Y-110878162D01*
X150401441Y-110739090D01*
X150546431Y-110526890D01*
X150597440Y-110275000D01*
X150597440Y-109725000D01*
X150573056Y-109595411D01*
X150597440Y-109475000D01*
X150597440Y-108925000D01*
X150573056Y-108795411D01*
X150597440Y-108675000D01*
X150597440Y-108125000D01*
X150573056Y-107995411D01*
X150597440Y-107875000D01*
X150597440Y-107325000D01*
X150573056Y-107195411D01*
X150597440Y-107075000D01*
X150597440Y-106760000D01*
X150935198Y-106760000D01*
X151510843Y-107335645D01*
X151477560Y-107500000D01*
X151477560Y-109000000D01*
X151521838Y-109235317D01*
X151660910Y-109451441D01*
X151729006Y-109497969D01*
X151586673Y-109640302D01*
X151490000Y-109873691D01*
X151490000Y-110464250D01*
X151648750Y-110623000D01*
X152623000Y-110623000D01*
X152623000Y-110603000D01*
X152877000Y-110603000D01*
X152877000Y-110623000D01*
X152897000Y-110623000D01*
X152897000Y-110877000D01*
X152877000Y-110877000D01*
X152877000Y-111976250D01*
X153035750Y-112135000D01*
X153501310Y-112135000D01*
X153734699Y-112038327D01*
X153913327Y-111859698D01*
X154010000Y-111626309D01*
X154010000Y-111217197D01*
X154173691Y-111285000D01*
X154761317Y-111285000D01*
X154529996Y-111515918D01*
X154265301Y-112153373D01*
X154264699Y-112843599D01*
X154528281Y-113481515D01*
X155015918Y-113970004D01*
X155653373Y-114234699D01*
X156343599Y-114235301D01*
X156981515Y-113971719D01*
X157470004Y-113484082D01*
X157734699Y-112846627D01*
X157735301Y-112156401D01*
X157471719Y-111518485D01*
X156984082Y-111029996D01*
X156511246Y-110833657D01*
X156535000Y-110776310D01*
X156535000Y-110285750D01*
X156376250Y-110127000D01*
X155227000Y-110127000D01*
X155227000Y-110147000D01*
X154973000Y-110147000D01*
X154973000Y-110127000D01*
X154953000Y-110127000D01*
X154953000Y-109873000D01*
X154973000Y-109873000D01*
X154973000Y-109853000D01*
X155227000Y-109853000D01*
X155227000Y-109873000D01*
X156376250Y-109873000D01*
X156535000Y-109714250D01*
X156535000Y-109223690D01*
X156438327Y-108990301D01*
X156436958Y-108988932D01*
X156496431Y-108901890D01*
X156547440Y-108650000D01*
X156547440Y-107350000D01*
X156523674Y-107223690D01*
X156965000Y-107223690D01*
X156965000Y-107714250D01*
X157123750Y-107873000D01*
X158273000Y-107873000D01*
X158273000Y-106873750D01*
X158114250Y-106715000D01*
X157473691Y-106715000D01*
X157240302Y-106811673D01*
X157061673Y-106990301D01*
X156965000Y-107223690D01*
X156523674Y-107223690D01*
X156503162Y-107114683D01*
X156364090Y-106898559D01*
X156151890Y-106753569D01*
X155900000Y-106702560D01*
X154300000Y-106702560D01*
X154064683Y-106746838D01*
X153848559Y-106885910D01*
X153769783Y-107001203D01*
X153626890Y-106903569D01*
X153375000Y-106852560D01*
X153177362Y-106852560D01*
X152284802Y-105960000D01*
X158385198Y-105960000D01*
X159140198Y-106715000D01*
X158685750Y-106715000D01*
X158527000Y-106873750D01*
X158527000Y-107873000D01*
X158547000Y-107873000D01*
X158547000Y-108127000D01*
X158527000Y-108127000D01*
X158527000Y-108147000D01*
X158273000Y-108147000D01*
X158273000Y-108127000D01*
X157123750Y-108127000D01*
X156965000Y-108285750D01*
X156965000Y-108776310D01*
X157061673Y-109009699D01*
X157063042Y-109011068D01*
X157003569Y-109098110D01*
X156952560Y-109350000D01*
X156952560Y-110650000D01*
X156996838Y-110885317D01*
X157135910Y-111101441D01*
X157348110Y-111246431D01*
X157600000Y-111297440D01*
X159200000Y-111297440D01*
X159435317Y-111253162D01*
X159490000Y-111217974D01*
X159490000Y-111626309D01*
X159586673Y-111859698D01*
X159765301Y-112038327D01*
X159998690Y-112135000D01*
X160464250Y-112135000D01*
X160623000Y-111976250D01*
X160623000Y-110877000D01*
X160877000Y-110877000D01*
X160877000Y-111976250D01*
X161035750Y-112135000D01*
X161501310Y-112135000D01*
X161734699Y-112038327D01*
X161913327Y-111859698D01*
X162010000Y-111626309D01*
X162010000Y-111035750D01*
X161851250Y-110877000D01*
X160877000Y-110877000D01*
X160623000Y-110877000D01*
X160603000Y-110877000D01*
X160603000Y-110623000D01*
X160623000Y-110623000D01*
X160623000Y-110603000D01*
X160877000Y-110603000D01*
X160877000Y-110623000D01*
X161851250Y-110623000D01*
X162010000Y-110464250D01*
X162010000Y-109873691D01*
X161913327Y-109640302D01*
X161772090Y-109499064D01*
X161826441Y-109464090D01*
X161971431Y-109251890D01*
X162022440Y-109000000D01*
X162022440Y-107500000D01*
X161978162Y-107264683D01*
X161839090Y-107048559D01*
X161626890Y-106903569D01*
X161381846Y-106853946D01*
X161287401Y-106712599D01*
X159237401Y-104662599D01*
X158990839Y-104497852D01*
X158700000Y-104440000D01*
X156295304Y-104440000D01*
X156359698Y-104413327D01*
X156538327Y-104234699D01*
X156635000Y-104001310D01*
X156635000Y-103535750D01*
X156476250Y-103377000D01*
X155377000Y-103377000D01*
X155377000Y-103397000D01*
X155123000Y-103397000D01*
X155123000Y-103377000D01*
X155103000Y-103377000D01*
X155103000Y-103123000D01*
X155123000Y-103123000D01*
X155123000Y-102148750D01*
X155377000Y-102148750D01*
X155377000Y-103123000D01*
X156476250Y-103123000D01*
X156635000Y-102964250D01*
X156635000Y-102498690D01*
X156538327Y-102265301D01*
X156359698Y-102086673D01*
X156126309Y-101990000D01*
X155535750Y-101990000D01*
X155377000Y-102148750D01*
X155123000Y-102148750D01*
X155024526Y-102050276D01*
X155314802Y-101760000D01*
X158250000Y-101760000D01*
X158540839Y-101702148D01*
X158787401Y-101537401D01*
X161287401Y-99037401D01*
X161452148Y-98790839D01*
X161510000Y-98500000D01*
X161510000Y-93750000D01*
X161452148Y-93459161D01*
X161287401Y-93212599D01*
X157110000Y-89035198D01*
X157110000Y-88795558D01*
X157335317Y-88753162D01*
X157551441Y-88614090D01*
X157696431Y-88401890D01*
X157747440Y-88150000D01*
X157747440Y-86850000D01*
X157703162Y-86614683D01*
X157564090Y-86398559D01*
X157351890Y-86253569D01*
X157110000Y-86204585D01*
X157110000Y-84100000D01*
X157052148Y-83809161D01*
X157052148Y-83809160D01*
X156887401Y-83562599D01*
X156874802Y-83550000D01*
X159402560Y-83550000D01*
X159402560Y-84950000D01*
X159446838Y-85185317D01*
X159585910Y-85401441D01*
X159798110Y-85546431D01*
X160050000Y-85597440D01*
X161650000Y-85597440D01*
X161885317Y-85553162D01*
X162101441Y-85414090D01*
X162246431Y-85201890D01*
X162297440Y-84950000D01*
X162297440Y-83550000D01*
X162253162Y-83314683D01*
X162114090Y-83098559D01*
X161901890Y-82953569D01*
X161650000Y-82902560D01*
X160050000Y-82902560D01*
X159814683Y-82946838D01*
X159598559Y-83085910D01*
X159453569Y-83298110D01*
X159402560Y-83550000D01*
X156874802Y-83550000D01*
X155537401Y-82212599D01*
X155290839Y-82047852D01*
X155085000Y-82006908D01*
X155085000Y-81535750D01*
X159415000Y-81535750D01*
X159415000Y-82076310D01*
X159511673Y-82309699D01*
X159690302Y-82488327D01*
X159923691Y-82585000D01*
X160564250Y-82585000D01*
X160723000Y-82426250D01*
X160723000Y-81377000D01*
X160977000Y-81377000D01*
X160977000Y-82426250D01*
X161135750Y-82585000D01*
X161776309Y-82585000D01*
X162009698Y-82488327D01*
X162188327Y-82309699D01*
X162285000Y-82076310D01*
X162285000Y-81535750D01*
X162126250Y-81377000D01*
X160977000Y-81377000D01*
X160723000Y-81377000D01*
X159573750Y-81377000D01*
X159415000Y-81535750D01*
X155085000Y-81535750D01*
X154926250Y-81377000D01*
X153777000Y-81377000D01*
X153777000Y-81397000D01*
X153523000Y-81397000D01*
X153523000Y-81377000D01*
X152373750Y-81377000D01*
X152215000Y-81535750D01*
X152215000Y-81990000D01*
X152000000Y-81990000D01*
X151709160Y-82047852D01*
X151462599Y-82212599D01*
X149962599Y-83712599D01*
X149797852Y-83959161D01*
X149740000Y-84250000D01*
X149740000Y-84915198D01*
X149287401Y-84462599D01*
X149040839Y-84297852D01*
X148750000Y-84240000D01*
X147250000Y-84240000D01*
X146959161Y-84297852D01*
X146712599Y-84462599D01*
X146212599Y-84962599D01*
X146184187Y-85005121D01*
X145667698Y-84820856D01*
X145112632Y-84848638D01*
X144728857Y-85007603D01*
X144659392Y-85249787D01*
X145460000Y-86050395D01*
X145474143Y-86036253D01*
X145653748Y-86215858D01*
X145639605Y-86230000D01*
X145653748Y-86244143D01*
X145474143Y-86423748D01*
X145460000Y-86409605D01*
X144659392Y-87210213D01*
X144728857Y-87452397D01*
X144869318Y-87502509D01*
X144669697Y-87584990D01*
X144276371Y-87977630D01*
X144063243Y-88490900D01*
X144062758Y-89046661D01*
X144274990Y-89560303D01*
X144667630Y-89953629D01*
X145180900Y-90166757D01*
X145736661Y-90167242D01*
X146250303Y-89955010D01*
X146643629Y-89562370D01*
X146729949Y-89354488D01*
X146814990Y-89560303D01*
X147207630Y-89953629D01*
X147240000Y-89967070D01*
X147240000Y-92185198D01*
X146010000Y-93415198D01*
X146010000Y-93373691D01*
X145913327Y-93140302D01*
X145734699Y-92961673D01*
X145501310Y-92865000D01*
X145035750Y-92865000D01*
X144877000Y-93023750D01*
X144877000Y-94123000D01*
X144897000Y-94123000D01*
X144897000Y-94377000D01*
X144877000Y-94377000D01*
X144877000Y-94397000D01*
X144623000Y-94397000D01*
X144623000Y-94377000D01*
X144603000Y-94377000D01*
X144603000Y-94123000D01*
X144623000Y-94123000D01*
X144623000Y-93023750D01*
X144464250Y-92865000D01*
X143998690Y-92865000D01*
X143765301Y-92961673D01*
X143586673Y-93140302D01*
X143510000Y-93325407D01*
X143510000Y-86022302D01*
X144050856Y-86022302D01*
X144078638Y-86577368D01*
X144237603Y-86961143D01*
X144479787Y-87030608D01*
X145280395Y-86230000D01*
X144479787Y-85429392D01*
X144237603Y-85498857D01*
X144050856Y-86022302D01*
X143510000Y-86022302D01*
X143510000Y-85314802D01*
X144287401Y-84537401D01*
X144452148Y-84290839D01*
X144510000Y-84000000D01*
X144510000Y-83226742D01*
X144635317Y-83203162D01*
X144851441Y-83064090D01*
X144996431Y-82851890D01*
X145047440Y-82600000D01*
X145047440Y-81100000D01*
X145003162Y-80864683D01*
X144864090Y-80648559D01*
X144651890Y-80503569D01*
X144638803Y-80500919D01*
X144851441Y-80364090D01*
X144996431Y-80151890D01*
X145047440Y-79900000D01*
X145047440Y-78400000D01*
X145003162Y-78164683D01*
X144864090Y-77948559D01*
X144651890Y-77803569D01*
X144400000Y-77752560D01*
X143427362Y-77752560D01*
X143260000Y-77585198D01*
X143260000Y-77097440D01*
X143550000Y-77097440D01*
X143690087Y-77071081D01*
X143723691Y-77085000D01*
X143816250Y-77085000D01*
X143961384Y-76939866D01*
X144001441Y-76914090D01*
X144146431Y-76701890D01*
X144197440Y-76450000D01*
X144197440Y-75577000D01*
X144225000Y-75577000D01*
X144225000Y-76926250D01*
X144383750Y-77085000D01*
X144476309Y-77085000D01*
X144709698Y-76988327D01*
X144888327Y-76809699D01*
X144985000Y-76576310D01*
X144985000Y-75735750D01*
X144826250Y-75577000D01*
X144225000Y-75577000D01*
X144197440Y-75577000D01*
X144197440Y-74450000D01*
X144153162Y-74214683D01*
X144014090Y-73998559D01*
X143969001Y-73967751D01*
X143816250Y-73815000D01*
X143723691Y-73815000D01*
X143686829Y-73830269D01*
X143550000Y-73802560D01*
X143050000Y-73802560D01*
X142894493Y-73831821D01*
X142750000Y-73802560D01*
X142250000Y-73802560D01*
X142094493Y-73831821D01*
X141950000Y-73802560D01*
X141450000Y-73802560D01*
X141294493Y-73831821D01*
X141150000Y-73802560D01*
X140724771Y-73802560D01*
X140942086Y-73712767D01*
X141261645Y-73393765D01*
X141434803Y-72976756D01*
X141434804Y-72974775D01*
X143564803Y-72974775D01*
X143737233Y-73392086D01*
X144056235Y-73711645D01*
X144360686Y-73838064D01*
X144225000Y-73973750D01*
X144225000Y-75323000D01*
X144826250Y-75323000D01*
X144985000Y-75164250D01*
X144985000Y-74500000D01*
X145302560Y-74500000D01*
X145302560Y-76200000D01*
X145346838Y-76435317D01*
X145485910Y-76651441D01*
X145698110Y-76796431D01*
X145950000Y-76847440D01*
X147076251Y-76847440D01*
X146895258Y-77283319D01*
X146894743Y-77874089D01*
X147120344Y-78420086D01*
X147537717Y-78838188D01*
X148083319Y-79064742D01*
X148674089Y-79065257D01*
X149220086Y-78839656D01*
X149638188Y-78422283D01*
X149771250Y-78101834D01*
X150824543Y-78101834D01*
X151224853Y-79070658D01*
X151965443Y-79812542D01*
X152477011Y-80024964D01*
X152311673Y-80190301D01*
X152215000Y-80423690D01*
X152215000Y-80964250D01*
X152373750Y-81123000D01*
X153523000Y-81123000D01*
X153523000Y-81103000D01*
X153777000Y-81103000D01*
X153777000Y-81123000D01*
X154926250Y-81123000D01*
X155085000Y-80964250D01*
X155085000Y-80423690D01*
X159415000Y-80423690D01*
X159415000Y-80964250D01*
X159573750Y-81123000D01*
X160723000Y-81123000D01*
X160723000Y-80073750D01*
X160977000Y-80073750D01*
X160977000Y-81123000D01*
X162126250Y-81123000D01*
X162285000Y-80964250D01*
X162285000Y-80423690D01*
X162188327Y-80190301D01*
X162009698Y-80011673D01*
X161776309Y-79915000D01*
X161135750Y-79915000D01*
X160977000Y-80073750D01*
X160723000Y-80073750D01*
X160564250Y-79915000D01*
X159923691Y-79915000D01*
X159690302Y-80011673D01*
X159511673Y-80190301D01*
X159415000Y-80423690D01*
X155085000Y-80423690D01*
X154988327Y-80190301D01*
X154809698Y-80011673D01*
X154642570Y-79942446D01*
X154950658Y-79815147D01*
X155692542Y-79074557D01*
X156094542Y-78106433D01*
X156094744Y-77874089D01*
X157054743Y-77874089D01*
X157280344Y-78420086D01*
X157697717Y-78838188D01*
X158243319Y-79064742D01*
X158834089Y-79065257D01*
X159380086Y-78839656D01*
X159798188Y-78422283D01*
X160024742Y-77876681D01*
X160025257Y-77285911D01*
X159799656Y-76739914D01*
X159382283Y-76321812D01*
X158836681Y-76095258D01*
X158245911Y-76094743D01*
X157699914Y-76320344D01*
X157281812Y-76737717D01*
X157055258Y-77283319D01*
X157054743Y-77874089D01*
X156094744Y-77874089D01*
X156095457Y-77058166D01*
X155695147Y-76089342D01*
X154954557Y-75347458D01*
X153986433Y-74945458D01*
X152938166Y-74944543D01*
X151969342Y-75344853D01*
X151227458Y-76085443D01*
X150825458Y-77053567D01*
X150824543Y-78101834D01*
X149771250Y-78101834D01*
X149864742Y-77876681D01*
X149865257Y-77285911D01*
X149654474Y-76775776D01*
X150051453Y-76762836D01*
X150584359Y-76542099D01*
X150695263Y-76264868D01*
X149650000Y-75219605D01*
X149635858Y-75233748D01*
X149456253Y-75054143D01*
X149470395Y-75040000D01*
X149829605Y-75040000D01*
X150874868Y-76085263D01*
X151152099Y-75974359D01*
X151395323Y-75328407D01*
X151372836Y-74638547D01*
X151152099Y-74105641D01*
X150874868Y-73994737D01*
X149829605Y-75040000D01*
X149470395Y-75040000D01*
X148425132Y-73994737D01*
X148368485Y-74017398D01*
X148201890Y-73903569D01*
X147950000Y-73852560D01*
X145950000Y-73852560D01*
X145714683Y-73896838D01*
X145498559Y-74035910D01*
X145353569Y-74248110D01*
X145302560Y-74500000D01*
X144985000Y-74500000D01*
X144985000Y-74323690D01*
X144888327Y-74090301D01*
X144709698Y-73911673D01*
X144645190Y-73884953D01*
X144924775Y-73885197D01*
X145094344Y-73815132D01*
X148604737Y-73815132D01*
X149650000Y-74860395D01*
X150695263Y-73815132D01*
X150584359Y-73537901D01*
X149938407Y-73294677D01*
X149248547Y-73317164D01*
X148715641Y-73537901D01*
X148604737Y-73815132D01*
X145094344Y-73815132D01*
X145342086Y-73712767D01*
X145661645Y-73393765D01*
X145834803Y-72976756D01*
X145834919Y-72843599D01*
X154264699Y-72843599D01*
X154528281Y-73481515D01*
X155015918Y-73970004D01*
X155653373Y-74234699D01*
X156343599Y-74235301D01*
X156981515Y-73971719D01*
X157470004Y-73484082D01*
X157734699Y-72846627D01*
X157735301Y-72156401D01*
X157471719Y-71518485D01*
X156984082Y-71029996D01*
X156346627Y-70765301D01*
X155656401Y-70764699D01*
X155018485Y-71028281D01*
X154529996Y-71515918D01*
X154265301Y-72153373D01*
X154264699Y-72843599D01*
X145834919Y-72843599D01*
X145835197Y-72525225D01*
X145662767Y-72107914D01*
X145343765Y-71788355D01*
X144926756Y-71615197D01*
X144475225Y-71614803D01*
X144057914Y-71787233D01*
X143738355Y-72106235D01*
X143565197Y-72523244D01*
X143564803Y-72974775D01*
X141434804Y-72974775D01*
X141435197Y-72525225D01*
X141262767Y-72107914D01*
X140943765Y-71788355D01*
X140526756Y-71615197D01*
X140075225Y-71614803D01*
X139657914Y-71787233D01*
X139338355Y-72106235D01*
X139165197Y-72523244D01*
X139164803Y-72974775D01*
X139337233Y-73392086D01*
X139656235Y-73711645D01*
X140073244Y-73884803D01*
X140355301Y-73885049D01*
X140198559Y-73985910D01*
X140053569Y-74198110D01*
X140002560Y-74450000D01*
X140002560Y-76450000D01*
X140046838Y-76685317D01*
X140140000Y-76830095D01*
X140140000Y-77535198D01*
X140024939Y-77650259D01*
X140025257Y-77285911D01*
X139799656Y-76739914D01*
X139591861Y-76531756D01*
X139646431Y-76451890D01*
X139697440Y-76200000D01*
X139697440Y-74500000D01*
X139653162Y-74264683D01*
X139514090Y-74048559D01*
X139301890Y-73903569D01*
X139050000Y-73852560D01*
X137100882Y-73852560D01*
X137470004Y-73484082D01*
X137734699Y-72846627D01*
X137735301Y-72156401D01*
X137471719Y-71518485D01*
X137350885Y-71397440D01*
X139050000Y-71397440D01*
X139285317Y-71353162D01*
X139501441Y-71214090D01*
X139646431Y-71001890D01*
X139697440Y-70750000D01*
X139697440Y-69050000D01*
X139653162Y-68814683D01*
X139514090Y-68598559D01*
X139311302Y-68460000D01*
X145694229Y-68460000D01*
X145498559Y-68585910D01*
X145353569Y-68798110D01*
X145302560Y-69050000D01*
X145302560Y-70750000D01*
X145346838Y-70985317D01*
X145485910Y-71201441D01*
X145698110Y-71346431D01*
X145950000Y-71397440D01*
X147950000Y-71397440D01*
X148185317Y-71353162D01*
X148401441Y-71214090D01*
X148546431Y-71001890D01*
X148597440Y-70750000D01*
X148597440Y-69050000D01*
X148553162Y-68814683D01*
X148414090Y-68598559D01*
X148211302Y-68460000D01*
X162540000Y-68460000D01*
X162540000Y-126540000D01*
X104460000Y-126540000D01*
X104460000Y-117874089D01*
X106894743Y-117874089D01*
X107120344Y-118420086D01*
X107537717Y-118838188D01*
X108083319Y-119064742D01*
X108674089Y-119065257D01*
X109220086Y-118839656D01*
X109638188Y-118422283D01*
X109771250Y-118101834D01*
X110824543Y-118101834D01*
X111224853Y-119070658D01*
X111965443Y-119812542D01*
X112933567Y-120214542D01*
X113981834Y-120215457D01*
X114950658Y-119815147D01*
X115692542Y-119074557D01*
X116094542Y-118106433D01*
X116094744Y-117874089D01*
X117054743Y-117874089D01*
X117280344Y-118420086D01*
X117697717Y-118838188D01*
X118243319Y-119064742D01*
X118834089Y-119065257D01*
X119380086Y-118839656D01*
X119798188Y-118422283D01*
X120024742Y-117876681D01*
X120024744Y-117874089D01*
X126894743Y-117874089D01*
X127120344Y-118420086D01*
X127537717Y-118838188D01*
X128083319Y-119064742D01*
X128674089Y-119065257D01*
X129220086Y-118839656D01*
X129638188Y-118422283D01*
X129771250Y-118101834D01*
X130824543Y-118101834D01*
X131224853Y-119070658D01*
X131965443Y-119812542D01*
X132933567Y-120214542D01*
X133981834Y-120215457D01*
X134950658Y-119815147D01*
X135692542Y-119074557D01*
X136094542Y-118106433D01*
X136095457Y-117058166D01*
X135695147Y-116089342D01*
X134954557Y-115347458D01*
X133986433Y-114945458D01*
X132938166Y-114944543D01*
X131969342Y-115344853D01*
X131227458Y-116085443D01*
X130825458Y-117053567D01*
X130824543Y-118101834D01*
X129771250Y-118101834D01*
X129864742Y-117876681D01*
X129865257Y-117285911D01*
X129654474Y-116775776D01*
X130051453Y-116762836D01*
X130584359Y-116542099D01*
X130695263Y-116264868D01*
X129650000Y-115219605D01*
X129635858Y-115233748D01*
X129456253Y-115054143D01*
X129470395Y-115040000D01*
X129829605Y-115040000D01*
X130874868Y-116085263D01*
X131152099Y-115974359D01*
X131395323Y-115328407D01*
X131372836Y-114638547D01*
X131152099Y-114105641D01*
X130874868Y-113994737D01*
X129829605Y-115040000D01*
X129470395Y-115040000D01*
X128425132Y-113994737D01*
X128147901Y-114105641D01*
X127904677Y-114751593D01*
X127927164Y-115441453D01*
X128147901Y-115974359D01*
X128425130Y-116085262D01*
X128415362Y-116095030D01*
X128085911Y-116094743D01*
X127539914Y-116320344D01*
X127121812Y-116737717D01*
X126895258Y-117283319D01*
X126894743Y-117874089D01*
X120024744Y-117874089D01*
X120025257Y-117285911D01*
X119799656Y-116739914D01*
X119382283Y-116321812D01*
X118836681Y-116095258D01*
X118245911Y-116094743D01*
X117699914Y-116320344D01*
X117281812Y-116737717D01*
X117055258Y-117283319D01*
X117054743Y-117874089D01*
X116094744Y-117874089D01*
X116095457Y-117058166D01*
X115695147Y-116089342D01*
X114954557Y-115347458D01*
X113986433Y-114945458D01*
X112938166Y-114944543D01*
X111969342Y-115344853D01*
X111227458Y-116085443D01*
X110825458Y-117053567D01*
X110824543Y-118101834D01*
X109771250Y-118101834D01*
X109864742Y-117876681D01*
X109865257Y-117285911D01*
X109654474Y-116775776D01*
X110051453Y-116762836D01*
X110584359Y-116542099D01*
X110695263Y-116264868D01*
X109650000Y-115219605D01*
X109635858Y-115233748D01*
X109456253Y-115054143D01*
X109470395Y-115040000D01*
X109829605Y-115040000D01*
X110874868Y-116085263D01*
X111152099Y-115974359D01*
X111395323Y-115328407D01*
X111372836Y-114638547D01*
X111152099Y-114105641D01*
X110874868Y-113994737D01*
X109829605Y-115040000D01*
X109470395Y-115040000D01*
X108425132Y-113994737D01*
X108147901Y-114105641D01*
X107904677Y-114751593D01*
X107927164Y-115441453D01*
X108147901Y-115974359D01*
X108425130Y-116085262D01*
X108415362Y-116095030D01*
X108085911Y-116094743D01*
X107539914Y-116320344D01*
X107121812Y-116737717D01*
X106895258Y-117283319D01*
X106894743Y-117874089D01*
X104460000Y-117874089D01*
X104460000Y-113815132D01*
X108604737Y-113815132D01*
X109650000Y-114860395D01*
X110695263Y-113815132D01*
X110584359Y-113537901D01*
X109938407Y-113294677D01*
X109248547Y-113317164D01*
X108715641Y-113537901D01*
X108604737Y-113815132D01*
X104460000Y-113815132D01*
X104460000Y-112843599D01*
X114264699Y-112843599D01*
X114528281Y-113481515D01*
X115015918Y-113970004D01*
X115653373Y-114234699D01*
X116343599Y-114235301D01*
X116981515Y-113971719D01*
X117138375Y-113815132D01*
X128604737Y-113815132D01*
X129650000Y-114860395D01*
X130695263Y-113815132D01*
X130584359Y-113537901D01*
X129938407Y-113294677D01*
X129248547Y-113317164D01*
X128715641Y-113537901D01*
X128604737Y-113815132D01*
X117138375Y-113815132D01*
X117470004Y-113484082D01*
X117734699Y-112846627D01*
X117734701Y-112843599D01*
X134264699Y-112843599D01*
X134528281Y-113481515D01*
X135015918Y-113970004D01*
X135653373Y-114234699D01*
X136343599Y-114235301D01*
X136981515Y-113971719D01*
X137470004Y-113484082D01*
X137734699Y-112846627D01*
X137735301Y-112156401D01*
X137471719Y-111518485D01*
X136984082Y-111029996D01*
X136346627Y-110765301D01*
X135656401Y-110764699D01*
X135018485Y-111028281D01*
X134529996Y-111515918D01*
X134265301Y-112153373D01*
X134264699Y-112843599D01*
X117734701Y-112843599D01*
X117735301Y-112156401D01*
X117471719Y-111518485D01*
X116984082Y-111029996D01*
X116346627Y-110765301D01*
X115656401Y-110764699D01*
X115018485Y-111028281D01*
X114529996Y-111515918D01*
X114265301Y-112153373D01*
X114264699Y-112843599D01*
X104460000Y-112843599D01*
X104460000Y-101273691D01*
X127715000Y-101273691D01*
X127715000Y-101864250D01*
X127873750Y-102023000D01*
X128873000Y-102023000D01*
X128873000Y-100923750D01*
X128714250Y-100765000D01*
X128223690Y-100765000D01*
X127990301Y-100861673D01*
X127811673Y-101040302D01*
X127715000Y-101273691D01*
X104460000Y-101273691D01*
X104460000Y-97874089D01*
X106894743Y-97874089D01*
X107120344Y-98420086D01*
X107537717Y-98838188D01*
X108083319Y-99064742D01*
X108674089Y-99065257D01*
X109220086Y-98839656D01*
X109638188Y-98422283D01*
X109771250Y-98101834D01*
X110824543Y-98101834D01*
X111224853Y-99070658D01*
X111965443Y-99812542D01*
X112933567Y-100214542D01*
X113981834Y-100215457D01*
X114950658Y-99815147D01*
X115692542Y-99074557D01*
X116094542Y-98106433D01*
X116094744Y-97874089D01*
X117054743Y-97874089D01*
X117280344Y-98420086D01*
X117697717Y-98838188D01*
X118243319Y-99064742D01*
X118834089Y-99065257D01*
X119380086Y-98839656D01*
X119798188Y-98422283D01*
X120024742Y-97876681D01*
X120024744Y-97874089D01*
X126894743Y-97874089D01*
X127120344Y-98420086D01*
X127537717Y-98838188D01*
X128083319Y-99064742D01*
X128674089Y-99065257D01*
X129220086Y-98839656D01*
X129638188Y-98422283D01*
X129864742Y-97876681D01*
X129865257Y-97285911D01*
X129654474Y-96775776D01*
X130051453Y-96762836D01*
X130584359Y-96542099D01*
X130695263Y-96264868D01*
X129650000Y-95219605D01*
X129635858Y-95233748D01*
X129456253Y-95054143D01*
X129470395Y-95040000D01*
X129829605Y-95040000D01*
X130874868Y-96085263D01*
X131152099Y-95974359D01*
X131395323Y-95328407D01*
X131372836Y-94638547D01*
X131152099Y-94105641D01*
X130874868Y-93994737D01*
X129829605Y-95040000D01*
X129470395Y-95040000D01*
X128425132Y-93994737D01*
X128147901Y-94105641D01*
X127904677Y-94751593D01*
X127927164Y-95441453D01*
X128147901Y-95974359D01*
X128425130Y-96085262D01*
X128415362Y-96095030D01*
X128085911Y-96094743D01*
X127539914Y-96320344D01*
X127121812Y-96737717D01*
X126895258Y-97283319D01*
X126894743Y-97874089D01*
X120024744Y-97874089D01*
X120025257Y-97285911D01*
X119799656Y-96739914D01*
X119382283Y-96321812D01*
X118836681Y-96095258D01*
X118245911Y-96094743D01*
X117699914Y-96320344D01*
X117281812Y-96737717D01*
X117055258Y-97283319D01*
X117054743Y-97874089D01*
X116094744Y-97874089D01*
X116095457Y-97058166D01*
X115695147Y-96089342D01*
X114954557Y-95347458D01*
X113986433Y-94945458D01*
X112938166Y-94944543D01*
X111969342Y-95344853D01*
X111227458Y-96085443D01*
X110825458Y-97053567D01*
X110824543Y-98101834D01*
X109771250Y-98101834D01*
X109864742Y-97876681D01*
X109865257Y-97285911D01*
X109654474Y-96775776D01*
X110051453Y-96762836D01*
X110584359Y-96542099D01*
X110695263Y-96264868D01*
X109650000Y-95219605D01*
X109635858Y-95233748D01*
X109456253Y-95054143D01*
X109470395Y-95040000D01*
X109829605Y-95040000D01*
X110874868Y-96085263D01*
X111152099Y-95974359D01*
X111395323Y-95328407D01*
X111372836Y-94638547D01*
X111152099Y-94105641D01*
X110874868Y-93994737D01*
X109829605Y-95040000D01*
X109470395Y-95040000D01*
X108425132Y-93994737D01*
X108147901Y-94105641D01*
X107904677Y-94751593D01*
X107927164Y-95441453D01*
X108147901Y-95974359D01*
X108425130Y-96085262D01*
X108415362Y-96095030D01*
X108085911Y-96094743D01*
X107539914Y-96320344D01*
X107121812Y-96737717D01*
X106895258Y-97283319D01*
X106894743Y-97874089D01*
X104460000Y-97874089D01*
X104460000Y-93815132D01*
X108604737Y-93815132D01*
X109650000Y-94860395D01*
X110695263Y-93815132D01*
X110584359Y-93537901D01*
X109938407Y-93294677D01*
X109248547Y-93317164D01*
X108715641Y-93537901D01*
X108604737Y-93815132D01*
X104460000Y-93815132D01*
X104460000Y-92843599D01*
X114264699Y-92843599D01*
X114528281Y-93481515D01*
X115015918Y-93970004D01*
X115653373Y-94234699D01*
X116343599Y-94235301D01*
X116981515Y-93971719D01*
X117138375Y-93815132D01*
X128604737Y-93815132D01*
X129650000Y-94860395D01*
X130695263Y-93815132D01*
X130584359Y-93537901D01*
X129938407Y-93294677D01*
X129248547Y-93317164D01*
X128715641Y-93537901D01*
X128604737Y-93815132D01*
X117138375Y-93815132D01*
X117470004Y-93484082D01*
X117734699Y-92846627D01*
X117735301Y-92156401D01*
X117471719Y-91518485D01*
X116984082Y-91029996D01*
X116346627Y-90765301D01*
X115656401Y-90764699D01*
X115018485Y-91028281D01*
X114529996Y-91515918D01*
X114265301Y-92153373D01*
X114264699Y-92843599D01*
X104460000Y-92843599D01*
X104460000Y-83803991D01*
X107464735Y-83803991D01*
X107697932Y-84368371D01*
X108129357Y-84800551D01*
X108693330Y-85034733D01*
X109303991Y-85035265D01*
X109868371Y-84802068D01*
X110090668Y-84580159D01*
X110599446Y-84580159D01*
X110685852Y-84836643D01*
X111259336Y-85046458D01*
X111869460Y-85020839D01*
X112314148Y-84836643D01*
X112400554Y-84580159D01*
X111500000Y-83679605D01*
X110599446Y-84580159D01*
X110090668Y-84580159D01*
X110300551Y-84370643D01*
X110304294Y-84361628D01*
X110419841Y-84400554D01*
X111320395Y-83500000D01*
X111679605Y-83500000D01*
X112580159Y-84400554D01*
X112695214Y-84361793D01*
X112697932Y-84368371D01*
X113129357Y-84800551D01*
X113693330Y-85034733D01*
X114303991Y-85035265D01*
X114868371Y-84802068D01*
X115300551Y-84370643D01*
X115534733Y-83806670D01*
X115535265Y-83196009D01*
X115302068Y-82631629D01*
X114870643Y-82199449D01*
X114306670Y-81965267D01*
X113696009Y-81964735D01*
X113131629Y-82197932D01*
X112699449Y-82629357D01*
X112695706Y-82638372D01*
X112580159Y-82599446D01*
X111679605Y-83500000D01*
X111320395Y-83500000D01*
X110419841Y-82599446D01*
X110304786Y-82638207D01*
X110302068Y-82631629D01*
X110090650Y-82419841D01*
X110599446Y-82419841D01*
X111500000Y-83320395D01*
X112400554Y-82419841D01*
X112314148Y-82163357D01*
X111740664Y-81953542D01*
X111130540Y-81979161D01*
X110685852Y-82163357D01*
X110599446Y-82419841D01*
X110090650Y-82419841D01*
X109870643Y-82199449D01*
X109306670Y-81965267D01*
X108696009Y-81964735D01*
X108131629Y-82197932D01*
X107699449Y-82629357D01*
X107465267Y-83193330D01*
X107464735Y-83803991D01*
X104460000Y-83803991D01*
X104460000Y-77862558D01*
X104575602Y-77978362D01*
X105433502Y-78334593D01*
X106362422Y-78335404D01*
X107220943Y-77980671D01*
X107878362Y-77324398D01*
X108234593Y-76466498D01*
X108234596Y-76462422D01*
X114764596Y-76462422D01*
X115119329Y-77320943D01*
X115775602Y-77978362D01*
X116633502Y-78334593D01*
X117562422Y-78335404D01*
X118420943Y-77980671D01*
X118527711Y-77874089D01*
X126894743Y-77874089D01*
X127120344Y-78420086D01*
X127537717Y-78838188D01*
X128083319Y-79064742D01*
X128674089Y-79065257D01*
X129220086Y-78839656D01*
X129638188Y-78422283D01*
X129771250Y-78101834D01*
X130824543Y-78101834D01*
X131224853Y-79070658D01*
X131965443Y-79812542D01*
X132933567Y-80214542D01*
X133981834Y-80215457D01*
X134950658Y-79815147D01*
X135692542Y-79074557D01*
X136094542Y-78106433D01*
X136095457Y-77058166D01*
X135695147Y-76089342D01*
X134954557Y-75347458D01*
X133986433Y-74945458D01*
X132938166Y-74944543D01*
X131969342Y-75344853D01*
X131227458Y-76085443D01*
X130825458Y-77053567D01*
X130824543Y-78101834D01*
X129771250Y-78101834D01*
X129864742Y-77876681D01*
X129865257Y-77285911D01*
X129654474Y-76775776D01*
X130051453Y-76762836D01*
X130584359Y-76542099D01*
X130695263Y-76264868D01*
X129650000Y-75219605D01*
X129635858Y-75233748D01*
X129456253Y-75054143D01*
X129470395Y-75040000D01*
X129829605Y-75040000D01*
X130874868Y-76085263D01*
X131152099Y-75974359D01*
X131395323Y-75328407D01*
X131372836Y-74638547D01*
X131152099Y-74105641D01*
X130874868Y-73994737D01*
X129829605Y-75040000D01*
X129470395Y-75040000D01*
X128425132Y-73994737D01*
X128147901Y-74105641D01*
X127904677Y-74751593D01*
X127927164Y-75441453D01*
X128147901Y-75974359D01*
X128425130Y-76085262D01*
X128415362Y-76095030D01*
X128085911Y-76094743D01*
X127539914Y-76320344D01*
X127121812Y-76737717D01*
X126895258Y-77283319D01*
X126894743Y-77874089D01*
X118527711Y-77874089D01*
X119078362Y-77324398D01*
X119434593Y-76466498D01*
X119435404Y-75537578D01*
X119080671Y-74679057D01*
X118424398Y-74021638D01*
X117927077Y-73815132D01*
X128604737Y-73815132D01*
X129650000Y-74860395D01*
X130695263Y-73815132D01*
X130584359Y-73537901D01*
X129938407Y-73294677D01*
X129248547Y-73317164D01*
X128715641Y-73537901D01*
X128604737Y-73815132D01*
X117927077Y-73815132D01*
X117566498Y-73665407D01*
X116637578Y-73664596D01*
X115779057Y-74019329D01*
X115121638Y-74675602D01*
X114765407Y-75533502D01*
X114764596Y-76462422D01*
X108234596Y-76462422D01*
X108235404Y-75537578D01*
X107880671Y-74679057D01*
X107224398Y-74021638D01*
X106366498Y-73665407D01*
X105437578Y-73664596D01*
X104579057Y-74019329D01*
X104460000Y-74138178D01*
X104460000Y-70080159D01*
X108099446Y-70080159D01*
X108185852Y-70336643D01*
X108759336Y-70546458D01*
X109369460Y-70520839D01*
X109814148Y-70336643D01*
X109900554Y-70080159D01*
X109000000Y-69179605D01*
X108099446Y-70080159D01*
X104460000Y-70080159D01*
X104460000Y-68460000D01*
X107563057Y-68460000D01*
X107453542Y-68759336D01*
X107453542Y-68759336D01*
G37*
X107453542Y-68759336D02*
X107479161Y-69369460D01*
X107663357Y-69814148D01*
X107919841Y-69900554D01*
X108820395Y-69000000D01*
X108806253Y-68985858D01*
X108985858Y-68806253D01*
X109000000Y-68820395D01*
X109014143Y-68806253D01*
X109193748Y-68985858D01*
X109179605Y-69000000D01*
X110080159Y-69900554D01*
X110336643Y-69814148D01*
X110546458Y-69240664D01*
X110520839Y-68630540D01*
X110450199Y-68460000D01*
X112562154Y-68460000D01*
X112465267Y-68693330D01*
X112464735Y-69303991D01*
X112697932Y-69868371D01*
X113129357Y-70300551D01*
X113693330Y-70534733D01*
X114303991Y-70535265D01*
X114868371Y-70302068D01*
X115300551Y-69870643D01*
X115534733Y-69306670D01*
X115535265Y-68696009D01*
X115437748Y-68460000D01*
X136794229Y-68460000D01*
X136598559Y-68585910D01*
X136453569Y-68798110D01*
X136402560Y-69050000D01*
X136402560Y-70750000D01*
X136410424Y-70791792D01*
X136346627Y-70765301D01*
X135656401Y-70764699D01*
X135018485Y-71028281D01*
X134529996Y-71515918D01*
X134265301Y-72153373D01*
X134264699Y-72843599D01*
X134528281Y-73481515D01*
X135015918Y-73970004D01*
X135653373Y-74234699D01*
X136343599Y-74235301D01*
X136509024Y-74166949D01*
X136453569Y-74248110D01*
X136402560Y-74500000D01*
X136402560Y-76200000D01*
X136446838Y-76435317D01*
X136585910Y-76651441D01*
X136798110Y-76796431D01*
X137050000Y-76847440D01*
X137236251Y-76847440D01*
X137055258Y-77283319D01*
X137054743Y-77874089D01*
X137280344Y-78420086D01*
X137697717Y-78838188D01*
X138243319Y-79064742D01*
X138834089Y-79065257D01*
X139380086Y-78839656D01*
X139540000Y-78680021D01*
X139540000Y-93740000D01*
X139035750Y-93740000D01*
X138877000Y-93898750D01*
X138877000Y-94873000D01*
X138897000Y-94873000D01*
X138897000Y-95127000D01*
X138877000Y-95127000D01*
X138877000Y-95147000D01*
X138623000Y-95147000D01*
X138623000Y-95127000D01*
X138603000Y-95127000D01*
X138603000Y-94873000D01*
X138623000Y-94873000D01*
X138623000Y-93898750D01*
X138464250Y-93740000D01*
X137873691Y-93740000D01*
X137640302Y-93836673D01*
X137499064Y-93977910D01*
X137464090Y-93923559D01*
X137251890Y-93778569D01*
X137187969Y-93765625D01*
X137470004Y-93484082D01*
X137734699Y-92846627D01*
X137735301Y-92156401D01*
X137471719Y-91518485D01*
X136984082Y-91029996D01*
X136346627Y-90765301D01*
X135656401Y-90764699D01*
X135018485Y-91028281D01*
X134529996Y-91515918D01*
X134265301Y-92153373D01*
X134264699Y-92843599D01*
X134528281Y-93481515D01*
X135011325Y-93965403D01*
X134903569Y-94123110D01*
X134852560Y-94375000D01*
X134852560Y-95305105D01*
X133986433Y-94945458D01*
X132938166Y-94944543D01*
X131969342Y-95344853D01*
X131227458Y-96085443D01*
X130825458Y-97053567D01*
X130824543Y-98101834D01*
X131224853Y-99070658D01*
X131965443Y-99812542D01*
X132933567Y-100214542D01*
X132960632Y-100214566D01*
X132282433Y-100892765D01*
X132151890Y-100803569D01*
X131900000Y-100752560D01*
X130600000Y-100752560D01*
X130364683Y-100796838D01*
X130148559Y-100935910D01*
X130122327Y-100974302D01*
X130009699Y-100861673D01*
X129776310Y-100765000D01*
X129285750Y-100765000D01*
X129127000Y-100923750D01*
X129127000Y-102023000D01*
X129147000Y-102023000D01*
X129147000Y-102277000D01*
X129127000Y-102277000D01*
X129127000Y-102297000D01*
X128873000Y-102297000D01*
X128873000Y-102277000D01*
X127873750Y-102277000D01*
X127715000Y-102435750D01*
X127715000Y-103026309D01*
X127811673Y-103259698D01*
X127990301Y-103438327D01*
X128126287Y-103494654D01*
X128114683Y-103496838D01*
X127898559Y-103635910D01*
X127753569Y-103848110D01*
X127702560Y-104100000D01*
X127702560Y-105600000D01*
X127746838Y-105835317D01*
X127885910Y-106051441D01*
X128098110Y-106196431D01*
X128350000Y-106247440D01*
X129650000Y-106247440D01*
X129885317Y-106203162D01*
X130101441Y-106064090D01*
X130123384Y-106031975D01*
X130135910Y-106051441D01*
X130348110Y-106196431D01*
X130600000Y-106247440D01*
X131900000Y-106247440D01*
X132135317Y-106203162D01*
X132351441Y-106064090D01*
X132496431Y-105851890D01*
X132547440Y-105600000D01*
X132547440Y-105035750D01*
X133240000Y-105035750D01*
X133240000Y-105626309D01*
X133336673Y-105859698D01*
X133351975Y-105875000D01*
X133336673Y-105890302D01*
X133240000Y-106123691D01*
X133240000Y-106714250D01*
X133398750Y-106873000D01*
X134373000Y-106873000D01*
X134373000Y-104877000D01*
X134627000Y-104877000D01*
X134627000Y-106873000D01*
X135601250Y-106873000D01*
X135760000Y-106714250D01*
X135760000Y-106123691D01*
X135663327Y-105890302D01*
X135648025Y-105875000D01*
X135663327Y-105859698D01*
X135760000Y-105626309D01*
X135760000Y-105035750D01*
X135601250Y-104877000D01*
X134627000Y-104877000D01*
X134373000Y-104877000D01*
X133398750Y-104877000D01*
X133240000Y-105035750D01*
X132547440Y-105035750D01*
X132547440Y-104100000D01*
X132503162Y-103864683D01*
X132364090Y-103648559D01*
X132151890Y-103503569D01*
X132138803Y-103500919D01*
X132351441Y-103364090D01*
X132496431Y-103151890D01*
X132547440Y-102900000D01*
X132547440Y-102747511D01*
X132637401Y-102687401D01*
X133227560Y-102097242D01*
X133227560Y-103000000D01*
X133271838Y-103235317D01*
X133410910Y-103451441D01*
X133479006Y-103497969D01*
X133336673Y-103640302D01*
X133240000Y-103873691D01*
X133240000Y-104464250D01*
X133398750Y-104623000D01*
X134373000Y-104623000D01*
X134373000Y-104603000D01*
X134627000Y-104603000D01*
X134627000Y-104623000D01*
X135601250Y-104623000D01*
X135760000Y-104464250D01*
X135760000Y-103873691D01*
X135663327Y-103640302D01*
X135522090Y-103499064D01*
X135576441Y-103464090D01*
X135721431Y-103251890D01*
X135772440Y-103000000D01*
X135772440Y-102760000D01*
X136635025Y-102760000D01*
X136693397Y-102799884D01*
X136598559Y-102860910D01*
X136509505Y-102991245D01*
X136415000Y-103085750D01*
X136415000Y-103201310D01*
X136423468Y-103221753D01*
X136402560Y-103325000D01*
X136402560Y-103875000D01*
X136426944Y-104004589D01*
X136402560Y-104125000D01*
X136402560Y-104675000D01*
X136426944Y-104804589D01*
X136402560Y-104925000D01*
X136402560Y-105475000D01*
X136426944Y-105604589D01*
X136402560Y-105725000D01*
X136402560Y-106275000D01*
X136426944Y-106404589D01*
X136402560Y-106525000D01*
X136402560Y-107075000D01*
X136426944Y-107204589D01*
X136402560Y-107325000D01*
X136402560Y-107875000D01*
X136426944Y-108004589D01*
X136402560Y-108125000D01*
X136402560Y-108675000D01*
X136422450Y-108780705D01*
X136415000Y-108798690D01*
X136415000Y-108914250D01*
X136511401Y-109010651D01*
X136585910Y-109126441D01*
X136693397Y-109199884D01*
X136631054Y-109240000D01*
X135772440Y-109240000D01*
X135772440Y-108750000D01*
X135728162Y-108514683D01*
X135589090Y-108298559D01*
X135520994Y-108252031D01*
X135663327Y-108109698D01*
X135760000Y-107876309D01*
X135760000Y-107285750D01*
X135601250Y-107127000D01*
X134627000Y-107127000D01*
X134627000Y-107147000D01*
X134373000Y-107147000D01*
X134373000Y-107127000D01*
X133398750Y-107127000D01*
X133240000Y-107285750D01*
X133240000Y-107876309D01*
X133336673Y-108109698D01*
X133477910Y-108250936D01*
X133423559Y-108285910D01*
X133278569Y-108498110D01*
X133227560Y-108750000D01*
X133227560Y-110250000D01*
X133271838Y-110485317D01*
X133410910Y-110701441D01*
X133623110Y-110846431D01*
X133875000Y-110897440D01*
X135125000Y-110897440D01*
X135360317Y-110853162D01*
X135505095Y-110760000D01*
X136635025Y-110760000D01*
X136798110Y-110871431D01*
X137050000Y-110922440D01*
X138550000Y-110922440D01*
X138584454Y-110915957D01*
X138577560Y-110950000D01*
X138577560Y-112450000D01*
X138621838Y-112685317D01*
X138740000Y-112868946D01*
X138740000Y-113982666D01*
X138664683Y-113996838D01*
X138448559Y-114135910D01*
X138303569Y-114348110D01*
X138252560Y-114600000D01*
X138252560Y-115900000D01*
X138289211Y-116094781D01*
X138245911Y-116094743D01*
X137699914Y-116320344D01*
X137281812Y-116737717D01*
X137055258Y-117283319D01*
X137054743Y-117874089D01*
X137280344Y-118420086D01*
X137697717Y-118838188D01*
X138243319Y-119064742D01*
X138834089Y-119065257D01*
X139380086Y-118839656D01*
X139798188Y-118422283D01*
X139958690Y-118035750D01*
X144990000Y-118035750D01*
X144990000Y-118626309D01*
X145086673Y-118859698D01*
X145265301Y-119038327D01*
X145498690Y-119135000D01*
X145964250Y-119135000D01*
X146123000Y-118976250D01*
X146123000Y-117877000D01*
X145148750Y-117877000D01*
X144990000Y-118035750D01*
X139958690Y-118035750D01*
X140024742Y-117876681D01*
X140025257Y-117285911D01*
X139799656Y-116739914D01*
X139607518Y-116547440D01*
X140400000Y-116547440D01*
X140635317Y-116503162D01*
X140851441Y-116364090D01*
X140996431Y-116151890D01*
X141003191Y-116118510D01*
X141061673Y-116259699D01*
X141240302Y-116438327D01*
X141473691Y-116535000D01*
X142064250Y-116535000D01*
X142223000Y-116376250D01*
X142223000Y-115377000D01*
X142477000Y-115377000D01*
X142477000Y-116376250D01*
X142635750Y-116535000D01*
X143226309Y-116535000D01*
X143459698Y-116438327D01*
X143638327Y-116259699D01*
X143735000Y-116026310D01*
X143735000Y-115535750D01*
X143576250Y-115377000D01*
X142477000Y-115377000D01*
X142223000Y-115377000D01*
X142203000Y-115377000D01*
X142203000Y-115123000D01*
X142223000Y-115123000D01*
X142223000Y-114123750D01*
X142477000Y-114123750D01*
X142477000Y-115123000D01*
X143576250Y-115123000D01*
X143735000Y-114964250D01*
X143735000Y-114473690D01*
X143638327Y-114240301D01*
X143459698Y-114061673D01*
X143226309Y-113965000D01*
X142635750Y-113965000D01*
X142477000Y-114123750D01*
X142223000Y-114123750D01*
X142064250Y-113965000D01*
X141473691Y-113965000D01*
X141240302Y-114061673D01*
X141061673Y-114240301D01*
X141005346Y-114376287D01*
X141003162Y-114364683D01*
X140864090Y-114148559D01*
X140651890Y-114003569D01*
X140400000Y-113952560D01*
X140260000Y-113952560D01*
X140260000Y-113097440D01*
X140575000Y-113097440D01*
X140704589Y-113073056D01*
X140825000Y-113097440D01*
X141375000Y-113097440D01*
X141504589Y-113073056D01*
X141625000Y-113097440D01*
X142175000Y-113097440D01*
X142304589Y-113073056D01*
X142425000Y-113097440D01*
X142975000Y-113097440D01*
X143104589Y-113073056D01*
X143225000Y-113097440D01*
X143775000Y-113097440D01*
X143904589Y-113073056D01*
X144025000Y-113097440D01*
X144575000Y-113097440D01*
X144704589Y-113073056D01*
X144825000Y-113097440D01*
X145375000Y-113097440D01*
X145504589Y-113073056D01*
X145625000Y-113097440D01*
X145940000Y-113097440D01*
X145940000Y-113852560D01*
X145625000Y-113852560D01*
X145389683Y-113896838D01*
X145173559Y-114035910D01*
X145028569Y-114248110D01*
X144977560Y-114500000D01*
X144977560Y-116000000D01*
X145021838Y-116235317D01*
X145160910Y-116451441D01*
X145229006Y-116497969D01*
X145086673Y-116640302D01*
X144990000Y-116873691D01*
X144990000Y-117464250D01*
X145148750Y-117623000D01*
X146123000Y-117623000D01*
X146123000Y-117603000D01*
X146377000Y-117603000D01*
X146377000Y-117623000D01*
X146397000Y-117623000D01*
X146397000Y-117877000D01*
X146377000Y-117877000D01*
X146377000Y-118976250D01*
X146535750Y-119135000D01*
X147001310Y-119135000D01*
X147234699Y-119038327D01*
X147413327Y-118859698D01*
X147456102Y-118756430D01*
X147537717Y-118838188D01*
X148083319Y-119064742D01*
X148674089Y-119065257D01*
X149220086Y-118839656D01*
X149638188Y-118422283D01*
X149771250Y-118101834D01*
X150824543Y-118101834D01*
X151224853Y-119070658D01*
X151965443Y-119812542D01*
X152933567Y-120214542D01*
X153981834Y-120215457D01*
X154950658Y-119815147D01*
X155692542Y-119074557D01*
X156094542Y-118106433D01*
X156094744Y-117874089D01*
X157054743Y-117874089D01*
X157280344Y-118420086D01*
X157697717Y-118838188D01*
X158243319Y-119064742D01*
X158834089Y-119065257D01*
X159380086Y-118839656D01*
X159798188Y-118422283D01*
X160024742Y-117876681D01*
X160025257Y-117285911D01*
X159799656Y-116739914D01*
X159382283Y-116321812D01*
X158836681Y-116095258D01*
X158245911Y-116094743D01*
X157699914Y-116320344D01*
X157281812Y-116737717D01*
X157055258Y-117283319D01*
X157054743Y-117874089D01*
X156094744Y-117874089D01*
X156095457Y-117058166D01*
X155695147Y-116089342D01*
X154954557Y-115347458D01*
X153986433Y-114945458D01*
X152938166Y-114944543D01*
X151969342Y-115344853D01*
X151227458Y-116085443D01*
X150825458Y-117053567D01*
X150824543Y-118101834D01*
X149771250Y-118101834D01*
X149864742Y-117876681D01*
X149865257Y-117285911D01*
X149654474Y-116775776D01*
X150051453Y-116762836D01*
X150584359Y-116542099D01*
X150695263Y-116264868D01*
X149650000Y-115219605D01*
X149635858Y-115233748D01*
X149456253Y-115054143D01*
X149470395Y-115040000D01*
X149829605Y-115040000D01*
X150874868Y-116085263D01*
X151152099Y-115974359D01*
X151395323Y-115328407D01*
X151372836Y-114638547D01*
X151152099Y-114105641D01*
X150874868Y-113994737D01*
X149829605Y-115040000D01*
X149470395Y-115040000D01*
X148425132Y-113994737D01*
X148147901Y-114105641D01*
X147904677Y-114751593D01*
X147927164Y-115441453D01*
X148147901Y-115974359D01*
X148425130Y-116085262D01*
X148415362Y-116095030D01*
X148085911Y-116094743D01*
X147539914Y-116320344D01*
X147316447Y-116543421D01*
X147272090Y-116499064D01*
X147326441Y-116464090D01*
X147471431Y-116251890D01*
X147522440Y-116000000D01*
X147522440Y-114500000D01*
X147478162Y-114264683D01*
X147460000Y-114236458D01*
X147460000Y-113815132D01*
X148604737Y-113815132D01*
X149650000Y-114860395D01*
X150695263Y-113815132D01*
X150584359Y-113537901D01*
X149938407Y-113294677D01*
X149248547Y-113317164D01*
X148715641Y-113537901D01*
X148604737Y-113815132D01*
X147460000Y-113815132D01*
X147460000Y-112864975D01*
X147571431Y-112701890D01*
X147622440Y-112450000D01*
X147622440Y-111827000D01*
X147627000Y-111827000D01*
X147627000Y-112926250D01*
X147785750Y-113085000D01*
X147901310Y-113085000D01*
X148134699Y-112988327D01*
X148313327Y-112809698D01*
X148410000Y-112576309D01*
X148410000Y-111985750D01*
X148251250Y-111827000D01*
X147627000Y-111827000D01*
X147622440Y-111827000D01*
X147622440Y-110950000D01*
X147578162Y-110714683D01*
X147460000Y-110531054D01*
X147460000Y-108674901D01*
X147778943Y-108543117D01*
X147802560Y-108519541D01*
X147802560Y-108675000D01*
X147826944Y-108804589D01*
X147802560Y-108925000D01*
X147802560Y-109475000D01*
X147826944Y-109604589D01*
X147802560Y-109725000D01*
X147802560Y-110275000D01*
X147810087Y-110315000D01*
X147785750Y-110315000D01*
X147627000Y-110473750D01*
X147627000Y-111573000D01*
X148251250Y-111573000D01*
X148410000Y-111414250D01*
X148410000Y-111035750D01*
X151490000Y-111035750D01*
X151490000Y-111626309D01*
X151586673Y-111859698D01*
X151765301Y-112038327D01*
X151998690Y-112135000D01*
X152464250Y-112135000D01*
X152623000Y-111976250D01*
X152623000Y-110877000D01*
X151648750Y-110877000D01*
X151490000Y-111035750D01*
X148410000Y-111035750D01*
X148410000Y-110914340D01*
X148450000Y-110922440D01*
X149950000Y-110922440D01*
X150185317Y-110878162D01*
X150401441Y-110739090D01*
X150546431Y-110526890D01*
X150597440Y-110275000D01*
X150597440Y-109725000D01*
X150573056Y-109595411D01*
X150597440Y-109475000D01*
X150597440Y-108925000D01*
X150573056Y-108795411D01*
X150597440Y-108675000D01*
X150597440Y-108125000D01*
X150573056Y-107995411D01*
X150597440Y-107875000D01*
X150597440Y-107325000D01*
X150573056Y-107195411D01*
X150597440Y-107075000D01*
X150597440Y-106760000D01*
X150935198Y-106760000D01*
X151510843Y-107335645D01*
X151477560Y-107500000D01*
X151477560Y-109000000D01*
X151521838Y-109235317D01*
X151660910Y-109451441D01*
X151729006Y-109497969D01*
X151586673Y-109640302D01*
X151490000Y-109873691D01*
X151490000Y-110464250D01*
X151648750Y-110623000D01*
X152623000Y-110623000D01*
X152623000Y-110603000D01*
X152877000Y-110603000D01*
X152877000Y-110623000D01*
X152897000Y-110623000D01*
X152897000Y-110877000D01*
X152877000Y-110877000D01*
X152877000Y-111976250D01*
X153035750Y-112135000D01*
X153501310Y-112135000D01*
X153734699Y-112038327D01*
X153913327Y-111859698D01*
X154010000Y-111626309D01*
X154010000Y-111217197D01*
X154173691Y-111285000D01*
X154761317Y-111285000D01*
X154529996Y-111515918D01*
X154265301Y-112153373D01*
X154264699Y-112843599D01*
X154528281Y-113481515D01*
X155015918Y-113970004D01*
X155653373Y-114234699D01*
X156343599Y-114235301D01*
X156981515Y-113971719D01*
X157470004Y-113484082D01*
X157734699Y-112846627D01*
X157735301Y-112156401D01*
X157471719Y-111518485D01*
X156984082Y-111029996D01*
X156511246Y-110833657D01*
X156535000Y-110776310D01*
X156535000Y-110285750D01*
X156376250Y-110127000D01*
X155227000Y-110127000D01*
X155227000Y-110147000D01*
X154973000Y-110147000D01*
X154973000Y-110127000D01*
X154953000Y-110127000D01*
X154953000Y-109873000D01*
X154973000Y-109873000D01*
X154973000Y-109853000D01*
X155227000Y-109853000D01*
X155227000Y-109873000D01*
X156376250Y-109873000D01*
X156535000Y-109714250D01*
X156535000Y-109223690D01*
X156438327Y-108990301D01*
X156436958Y-108988932D01*
X156496431Y-108901890D01*
X156547440Y-108650000D01*
X156547440Y-107350000D01*
X156523674Y-107223690D01*
X156965000Y-107223690D01*
X156965000Y-107714250D01*
X157123750Y-107873000D01*
X158273000Y-107873000D01*
X158273000Y-106873750D01*
X158114250Y-106715000D01*
X157473691Y-106715000D01*
X157240302Y-106811673D01*
X157061673Y-106990301D01*
X156965000Y-107223690D01*
X156523674Y-107223690D01*
X156503162Y-107114683D01*
X156364090Y-106898559D01*
X156151890Y-106753569D01*
X155900000Y-106702560D01*
X154300000Y-106702560D01*
X154064683Y-106746838D01*
X153848559Y-106885910D01*
X153769783Y-107001203D01*
X153626890Y-106903569D01*
X153375000Y-106852560D01*
X153177362Y-106852560D01*
X152284802Y-105960000D01*
X158385198Y-105960000D01*
X159140198Y-106715000D01*
X158685750Y-106715000D01*
X158527000Y-106873750D01*
X158527000Y-107873000D01*
X158547000Y-107873000D01*
X158547000Y-108127000D01*
X158527000Y-108127000D01*
X158527000Y-108147000D01*
X158273000Y-108147000D01*
X158273000Y-108127000D01*
X157123750Y-108127000D01*
X156965000Y-108285750D01*
X156965000Y-108776310D01*
X157061673Y-109009699D01*
X157063042Y-109011068D01*
X157003569Y-109098110D01*
X156952560Y-109350000D01*
X156952560Y-110650000D01*
X156996838Y-110885317D01*
X157135910Y-111101441D01*
X157348110Y-111246431D01*
X157600000Y-111297440D01*
X159200000Y-111297440D01*
X159435317Y-111253162D01*
X159490000Y-111217974D01*
X159490000Y-111626309D01*
X159586673Y-111859698D01*
X159765301Y-112038327D01*
X159998690Y-112135000D01*
X160464250Y-112135000D01*
X160623000Y-111976250D01*
X160623000Y-110877000D01*
X160877000Y-110877000D01*
X160877000Y-111976250D01*
X161035750Y-112135000D01*
X161501310Y-112135000D01*
X161734699Y-112038327D01*
X161913327Y-111859698D01*
X162010000Y-111626309D01*
X162010000Y-111035750D01*
X161851250Y-110877000D01*
X160877000Y-110877000D01*
X160623000Y-110877000D01*
X160603000Y-110877000D01*
X160603000Y-110623000D01*
X160623000Y-110623000D01*
X160623000Y-110603000D01*
X160877000Y-110603000D01*
X160877000Y-110623000D01*
X161851250Y-110623000D01*
X162010000Y-110464250D01*
X162010000Y-109873691D01*
X161913327Y-109640302D01*
X161772090Y-109499064D01*
X161826441Y-109464090D01*
X161971431Y-109251890D01*
X162022440Y-109000000D01*
X162022440Y-107500000D01*
X161978162Y-107264683D01*
X161839090Y-107048559D01*
X161626890Y-106903569D01*
X161381846Y-106853946D01*
X161287401Y-106712599D01*
X159237401Y-104662599D01*
X158990839Y-104497852D01*
X158700000Y-104440000D01*
X156295304Y-104440000D01*
X156359698Y-104413327D01*
X156538327Y-104234699D01*
X156635000Y-104001310D01*
X156635000Y-103535750D01*
X156476250Y-103377000D01*
X155377000Y-103377000D01*
X155377000Y-103397000D01*
X155123000Y-103397000D01*
X155123000Y-103377000D01*
X155103000Y-103377000D01*
X155103000Y-103123000D01*
X155123000Y-103123000D01*
X155123000Y-102148750D01*
X155377000Y-102148750D01*
X155377000Y-103123000D01*
X156476250Y-103123000D01*
X156635000Y-102964250D01*
X156635000Y-102498690D01*
X156538327Y-102265301D01*
X156359698Y-102086673D01*
X156126309Y-101990000D01*
X155535750Y-101990000D01*
X155377000Y-102148750D01*
X155123000Y-102148750D01*
X155024526Y-102050276D01*
X155314802Y-101760000D01*
X158250000Y-101760000D01*
X158540839Y-101702148D01*
X158787401Y-101537401D01*
X161287401Y-99037401D01*
X161452148Y-98790839D01*
X161510000Y-98500000D01*
X161510000Y-93750000D01*
X161452148Y-93459161D01*
X161287401Y-93212599D01*
X157110000Y-89035198D01*
X157110000Y-88795558D01*
X157335317Y-88753162D01*
X157551441Y-88614090D01*
X157696431Y-88401890D01*
X157747440Y-88150000D01*
X157747440Y-86850000D01*
X157703162Y-86614683D01*
X157564090Y-86398559D01*
X157351890Y-86253569D01*
X157110000Y-86204585D01*
X157110000Y-84100000D01*
X157052148Y-83809161D01*
X157052148Y-83809160D01*
X156887401Y-83562599D01*
X156874802Y-83550000D01*
X159402560Y-83550000D01*
X159402560Y-84950000D01*
X159446838Y-85185317D01*
X159585910Y-85401441D01*
X159798110Y-85546431D01*
X160050000Y-85597440D01*
X161650000Y-85597440D01*
X161885317Y-85553162D01*
X162101441Y-85414090D01*
X162246431Y-85201890D01*
X162297440Y-84950000D01*
X162297440Y-83550000D01*
X162253162Y-83314683D01*
X162114090Y-83098559D01*
X161901890Y-82953569D01*
X161650000Y-82902560D01*
X160050000Y-82902560D01*
X159814683Y-82946838D01*
X159598559Y-83085910D01*
X159453569Y-83298110D01*
X159402560Y-83550000D01*
X156874802Y-83550000D01*
X155537401Y-82212599D01*
X155290839Y-82047852D01*
X155085000Y-82006908D01*
X155085000Y-81535750D01*
X159415000Y-81535750D01*
X159415000Y-82076310D01*
X159511673Y-82309699D01*
X159690302Y-82488327D01*
X159923691Y-82585000D01*
X160564250Y-82585000D01*
X160723000Y-82426250D01*
X160723000Y-81377000D01*
X160977000Y-81377000D01*
X160977000Y-82426250D01*
X161135750Y-82585000D01*
X161776309Y-82585000D01*
X162009698Y-82488327D01*
X162188327Y-82309699D01*
X162285000Y-82076310D01*
X162285000Y-81535750D01*
X162126250Y-81377000D01*
X160977000Y-81377000D01*
X160723000Y-81377000D01*
X159573750Y-81377000D01*
X159415000Y-81535750D01*
X155085000Y-81535750D01*
X154926250Y-81377000D01*
X153777000Y-81377000D01*
X153777000Y-81397000D01*
X153523000Y-81397000D01*
X153523000Y-81377000D01*
X152373750Y-81377000D01*
X152215000Y-81535750D01*
X152215000Y-81990000D01*
X152000000Y-81990000D01*
X151709160Y-82047852D01*
X151462599Y-82212599D01*
X149962599Y-83712599D01*
X149797852Y-83959161D01*
X149740000Y-84250000D01*
X149740000Y-84915198D01*
X149287401Y-84462599D01*
X149040839Y-84297852D01*
X148750000Y-84240000D01*
X147250000Y-84240000D01*
X146959161Y-84297852D01*
X146712599Y-84462599D01*
X146212599Y-84962599D01*
X146184187Y-85005121D01*
X145667698Y-84820856D01*
X145112632Y-84848638D01*
X144728857Y-85007603D01*
X144659392Y-85249787D01*
X145460000Y-86050395D01*
X145474143Y-86036253D01*
X145653748Y-86215858D01*
X145639605Y-86230000D01*
X145653748Y-86244143D01*
X145474143Y-86423748D01*
X145460000Y-86409605D01*
X144659392Y-87210213D01*
X144728857Y-87452397D01*
X144869318Y-87502509D01*
X144669697Y-87584990D01*
X144276371Y-87977630D01*
X144063243Y-88490900D01*
X144062758Y-89046661D01*
X144274990Y-89560303D01*
X144667630Y-89953629D01*
X145180900Y-90166757D01*
X145736661Y-90167242D01*
X146250303Y-89955010D01*
X146643629Y-89562370D01*
X146729949Y-89354488D01*
X146814990Y-89560303D01*
X147207630Y-89953629D01*
X147240000Y-89967070D01*
X147240000Y-92185198D01*
X146010000Y-93415198D01*
X146010000Y-93373691D01*
X145913327Y-93140302D01*
X145734699Y-92961673D01*
X145501310Y-92865000D01*
X145035750Y-92865000D01*
X144877000Y-93023750D01*
X144877000Y-94123000D01*
X144897000Y-94123000D01*
X144897000Y-94377000D01*
X144877000Y-94377000D01*
X144877000Y-94397000D01*
X144623000Y-94397000D01*
X144623000Y-94377000D01*
X144603000Y-94377000D01*
X144603000Y-94123000D01*
X144623000Y-94123000D01*
X144623000Y-93023750D01*
X144464250Y-92865000D01*
X143998690Y-92865000D01*
X143765301Y-92961673D01*
X143586673Y-93140302D01*
X143510000Y-93325407D01*
X143510000Y-86022302D01*
X144050856Y-86022302D01*
X144078638Y-86577368D01*
X144237603Y-86961143D01*
X144479787Y-87030608D01*
X145280395Y-86230000D01*
X144479787Y-85429392D01*
X144237603Y-85498857D01*
X144050856Y-86022302D01*
X143510000Y-86022302D01*
X143510000Y-85314802D01*
X144287401Y-84537401D01*
X144452148Y-84290839D01*
X144510000Y-84000000D01*
X144510000Y-83226742D01*
X144635317Y-83203162D01*
X144851441Y-83064090D01*
X144996431Y-82851890D01*
X145047440Y-82600000D01*
X145047440Y-81100000D01*
X145003162Y-80864683D01*
X144864090Y-80648559D01*
X144651890Y-80503569D01*
X144638803Y-80500919D01*
X144851441Y-80364090D01*
X144996431Y-80151890D01*
X145047440Y-79900000D01*
X145047440Y-78400000D01*
X145003162Y-78164683D01*
X144864090Y-77948559D01*
X144651890Y-77803569D01*
X144400000Y-77752560D01*
X143427362Y-77752560D01*
X143260000Y-77585198D01*
X143260000Y-77097440D01*
X143550000Y-77097440D01*
X143690087Y-77071081D01*
X143723691Y-77085000D01*
X143816250Y-77085000D01*
X143961384Y-76939866D01*
X144001441Y-76914090D01*
X144146431Y-76701890D01*
X144197440Y-76450000D01*
X144197440Y-75577000D01*
X144225000Y-75577000D01*
X144225000Y-76926250D01*
X144383750Y-77085000D01*
X144476309Y-77085000D01*
X144709698Y-76988327D01*
X144888327Y-76809699D01*
X144985000Y-76576310D01*
X144985000Y-75735750D01*
X144826250Y-75577000D01*
X144225000Y-75577000D01*
X144197440Y-75577000D01*
X144197440Y-74450000D01*
X144153162Y-74214683D01*
X144014090Y-73998559D01*
X143969001Y-73967751D01*
X143816250Y-73815000D01*
X143723691Y-73815000D01*
X143686829Y-73830269D01*
X143550000Y-73802560D01*
X143050000Y-73802560D01*
X142894493Y-73831821D01*
X142750000Y-73802560D01*
X142250000Y-73802560D01*
X142094493Y-73831821D01*
X141950000Y-73802560D01*
X141450000Y-73802560D01*
X141294493Y-73831821D01*
X141150000Y-73802560D01*
X140724771Y-73802560D01*
X140942086Y-73712767D01*
X141261645Y-73393765D01*
X141434803Y-72976756D01*
X141434804Y-72974775D01*
X143564803Y-72974775D01*
X143737233Y-73392086D01*
X144056235Y-73711645D01*
X144360686Y-73838064D01*
X144225000Y-73973750D01*
X144225000Y-75323000D01*
X144826250Y-75323000D01*
X144985000Y-75164250D01*
X144985000Y-74500000D01*
X145302560Y-74500000D01*
X145302560Y-76200000D01*
X145346838Y-76435317D01*
X145485910Y-76651441D01*
X145698110Y-76796431D01*
X145950000Y-76847440D01*
X147076251Y-76847440D01*
X146895258Y-77283319D01*
X146894743Y-77874089D01*
X147120344Y-78420086D01*
X147537717Y-78838188D01*
X148083319Y-79064742D01*
X148674089Y-79065257D01*
X149220086Y-78839656D01*
X149638188Y-78422283D01*
X149771250Y-78101834D01*
X150824543Y-78101834D01*
X151224853Y-79070658D01*
X151965443Y-79812542D01*
X152477011Y-80024964D01*
X152311673Y-80190301D01*
X152215000Y-80423690D01*
X152215000Y-80964250D01*
X152373750Y-81123000D01*
X153523000Y-81123000D01*
X153523000Y-81103000D01*
X153777000Y-81103000D01*
X153777000Y-81123000D01*
X154926250Y-81123000D01*
X155085000Y-80964250D01*
X155085000Y-80423690D01*
X159415000Y-80423690D01*
X159415000Y-80964250D01*
X159573750Y-81123000D01*
X160723000Y-81123000D01*
X160723000Y-80073750D01*
X160977000Y-80073750D01*
X160977000Y-81123000D01*
X162126250Y-81123000D01*
X162285000Y-80964250D01*
X162285000Y-80423690D01*
X162188327Y-80190301D01*
X162009698Y-80011673D01*
X161776309Y-79915000D01*
X161135750Y-79915000D01*
X160977000Y-80073750D01*
X160723000Y-80073750D01*
X160564250Y-79915000D01*
X159923691Y-79915000D01*
X159690302Y-80011673D01*
X159511673Y-80190301D01*
X159415000Y-80423690D01*
X155085000Y-80423690D01*
X154988327Y-80190301D01*
X154809698Y-80011673D01*
X154642570Y-79942446D01*
X154950658Y-79815147D01*
X155692542Y-79074557D01*
X156094542Y-78106433D01*
X156094744Y-77874089D01*
X157054743Y-77874089D01*
X157280344Y-78420086D01*
X157697717Y-78838188D01*
X158243319Y-79064742D01*
X158834089Y-79065257D01*
X159380086Y-78839656D01*
X159798188Y-78422283D01*
X160024742Y-77876681D01*
X160025257Y-77285911D01*
X159799656Y-76739914D01*
X159382283Y-76321812D01*
X158836681Y-76095258D01*
X158245911Y-76094743D01*
X157699914Y-76320344D01*
X157281812Y-76737717D01*
X157055258Y-77283319D01*
X157054743Y-77874089D01*
X156094744Y-77874089D01*
X156095457Y-77058166D01*
X155695147Y-76089342D01*
X154954557Y-75347458D01*
X153986433Y-74945458D01*
X152938166Y-74944543D01*
X151969342Y-75344853D01*
X151227458Y-76085443D01*
X150825458Y-77053567D01*
X150824543Y-78101834D01*
X149771250Y-78101834D01*
X149864742Y-77876681D01*
X149865257Y-77285911D01*
X149654474Y-76775776D01*
X150051453Y-76762836D01*
X150584359Y-76542099D01*
X150695263Y-76264868D01*
X149650000Y-75219605D01*
X149635858Y-75233748D01*
X149456253Y-75054143D01*
X149470395Y-75040000D01*
X149829605Y-75040000D01*
X150874868Y-76085263D01*
X151152099Y-75974359D01*
X151395323Y-75328407D01*
X151372836Y-74638547D01*
X151152099Y-74105641D01*
X150874868Y-73994737D01*
X149829605Y-75040000D01*
X149470395Y-75040000D01*
X148425132Y-73994737D01*
X148368485Y-74017398D01*
X148201890Y-73903569D01*
X147950000Y-73852560D01*
X145950000Y-73852560D01*
X145714683Y-73896838D01*
X145498559Y-74035910D01*
X145353569Y-74248110D01*
X145302560Y-74500000D01*
X144985000Y-74500000D01*
X144985000Y-74323690D01*
X144888327Y-74090301D01*
X144709698Y-73911673D01*
X144645190Y-73884953D01*
X144924775Y-73885197D01*
X145094344Y-73815132D01*
X148604737Y-73815132D01*
X149650000Y-74860395D01*
X150695263Y-73815132D01*
X150584359Y-73537901D01*
X149938407Y-73294677D01*
X149248547Y-73317164D01*
X148715641Y-73537901D01*
X148604737Y-73815132D01*
X145094344Y-73815132D01*
X145342086Y-73712767D01*
X145661645Y-73393765D01*
X145834803Y-72976756D01*
X145834919Y-72843599D01*
X154264699Y-72843599D01*
X154528281Y-73481515D01*
X155015918Y-73970004D01*
X155653373Y-74234699D01*
X156343599Y-74235301D01*
X156981515Y-73971719D01*
X157470004Y-73484082D01*
X157734699Y-72846627D01*
X157735301Y-72156401D01*
X157471719Y-71518485D01*
X156984082Y-71029996D01*
X156346627Y-70765301D01*
X155656401Y-70764699D01*
X155018485Y-71028281D01*
X154529996Y-71515918D01*
X154265301Y-72153373D01*
X154264699Y-72843599D01*
X145834919Y-72843599D01*
X145835197Y-72525225D01*
X145662767Y-72107914D01*
X145343765Y-71788355D01*
X144926756Y-71615197D01*
X144475225Y-71614803D01*
X144057914Y-71787233D01*
X143738355Y-72106235D01*
X143565197Y-72523244D01*
X143564803Y-72974775D01*
X141434804Y-72974775D01*
X141435197Y-72525225D01*
X141262767Y-72107914D01*
X140943765Y-71788355D01*
X140526756Y-71615197D01*
X140075225Y-71614803D01*
X139657914Y-71787233D01*
X139338355Y-72106235D01*
X139165197Y-72523244D01*
X139164803Y-72974775D01*
X139337233Y-73392086D01*
X139656235Y-73711645D01*
X140073244Y-73884803D01*
X140355301Y-73885049D01*
X140198559Y-73985910D01*
X140053569Y-74198110D01*
X140002560Y-74450000D01*
X140002560Y-76450000D01*
X140046838Y-76685317D01*
X140140000Y-76830095D01*
X140140000Y-77535198D01*
X140024939Y-77650259D01*
X140025257Y-77285911D01*
X139799656Y-76739914D01*
X139591861Y-76531756D01*
X139646431Y-76451890D01*
X139697440Y-76200000D01*
X139697440Y-74500000D01*
X139653162Y-74264683D01*
X139514090Y-74048559D01*
X139301890Y-73903569D01*
X139050000Y-73852560D01*
X137100882Y-73852560D01*
X137470004Y-73484082D01*
X137734699Y-72846627D01*
X137735301Y-72156401D01*
X137471719Y-71518485D01*
X137350885Y-71397440D01*
X139050000Y-71397440D01*
X139285317Y-71353162D01*
X139501441Y-71214090D01*
X139646431Y-71001890D01*
X139697440Y-70750000D01*
X139697440Y-69050000D01*
X139653162Y-68814683D01*
X139514090Y-68598559D01*
X139311302Y-68460000D01*
X145694229Y-68460000D01*
X145498559Y-68585910D01*
X145353569Y-68798110D01*
X145302560Y-69050000D01*
X145302560Y-70750000D01*
X145346838Y-70985317D01*
X145485910Y-71201441D01*
X145698110Y-71346431D01*
X145950000Y-71397440D01*
X147950000Y-71397440D01*
X148185317Y-71353162D01*
X148401441Y-71214090D01*
X148546431Y-71001890D01*
X148597440Y-70750000D01*
X148597440Y-69050000D01*
X148553162Y-68814683D01*
X148414090Y-68598559D01*
X148211302Y-68460000D01*
X162540000Y-68460000D01*
X162540000Y-126540000D01*
X104460000Y-126540000D01*
X104460000Y-117874089D01*
X106894743Y-117874089D01*
X107120344Y-118420086D01*
X107537717Y-118838188D01*
X108083319Y-119064742D01*
X108674089Y-119065257D01*
X109220086Y-118839656D01*
X109638188Y-118422283D01*
X109771250Y-118101834D01*
X110824543Y-118101834D01*
X111224853Y-119070658D01*
X111965443Y-119812542D01*
X112933567Y-120214542D01*
X113981834Y-120215457D01*
X114950658Y-119815147D01*
X115692542Y-119074557D01*
X116094542Y-118106433D01*
X116094744Y-117874089D01*
X117054743Y-117874089D01*
X117280344Y-118420086D01*
X117697717Y-118838188D01*
X118243319Y-119064742D01*
X118834089Y-119065257D01*
X119380086Y-118839656D01*
X119798188Y-118422283D01*
X120024742Y-117876681D01*
X120024744Y-117874089D01*
X126894743Y-117874089D01*
X127120344Y-118420086D01*
X127537717Y-118838188D01*
X128083319Y-119064742D01*
X128674089Y-119065257D01*
X129220086Y-118839656D01*
X129638188Y-118422283D01*
X129771250Y-118101834D01*
X130824543Y-118101834D01*
X131224853Y-119070658D01*
X131965443Y-119812542D01*
X132933567Y-120214542D01*
X133981834Y-120215457D01*
X134950658Y-119815147D01*
X135692542Y-119074557D01*
X136094542Y-118106433D01*
X136095457Y-117058166D01*
X135695147Y-116089342D01*
X134954557Y-115347458D01*
X133986433Y-114945458D01*
X132938166Y-114944543D01*
X131969342Y-115344853D01*
X131227458Y-116085443D01*
X130825458Y-117053567D01*
X130824543Y-118101834D01*
X129771250Y-118101834D01*
X129864742Y-117876681D01*
X129865257Y-117285911D01*
X129654474Y-116775776D01*
X130051453Y-116762836D01*
X130584359Y-116542099D01*
X130695263Y-116264868D01*
X129650000Y-115219605D01*
X129635858Y-115233748D01*
X129456253Y-115054143D01*
X129470395Y-115040000D01*
X129829605Y-115040000D01*
X130874868Y-116085263D01*
X131152099Y-115974359D01*
X131395323Y-115328407D01*
X131372836Y-114638547D01*
X131152099Y-114105641D01*
X130874868Y-113994737D01*
X129829605Y-115040000D01*
X129470395Y-115040000D01*
X128425132Y-113994737D01*
X128147901Y-114105641D01*
X127904677Y-114751593D01*
X127927164Y-115441453D01*
X128147901Y-115974359D01*
X128425130Y-116085262D01*
X128415362Y-116095030D01*
X128085911Y-116094743D01*
X127539914Y-116320344D01*
X127121812Y-116737717D01*
X126895258Y-117283319D01*
X126894743Y-117874089D01*
X120024744Y-117874089D01*
X120025257Y-117285911D01*
X119799656Y-116739914D01*
X119382283Y-116321812D01*
X118836681Y-116095258D01*
X118245911Y-116094743D01*
X117699914Y-116320344D01*
X117281812Y-116737717D01*
X117055258Y-117283319D01*
X117054743Y-117874089D01*
X116094744Y-117874089D01*
X116095457Y-117058166D01*
X115695147Y-116089342D01*
X114954557Y-115347458D01*
X113986433Y-114945458D01*
X112938166Y-114944543D01*
X111969342Y-115344853D01*
X111227458Y-116085443D01*
X110825458Y-117053567D01*
X110824543Y-118101834D01*
X109771250Y-118101834D01*
X109864742Y-117876681D01*
X109865257Y-117285911D01*
X109654474Y-116775776D01*
X110051453Y-116762836D01*
X110584359Y-116542099D01*
X110695263Y-116264868D01*
X109650000Y-115219605D01*
X109635858Y-115233748D01*
X109456253Y-115054143D01*
X109470395Y-115040000D01*
X109829605Y-115040000D01*
X110874868Y-116085263D01*
X111152099Y-115974359D01*
X111395323Y-115328407D01*
X111372836Y-114638547D01*
X111152099Y-114105641D01*
X110874868Y-113994737D01*
X109829605Y-115040000D01*
X109470395Y-115040000D01*
X108425132Y-113994737D01*
X108147901Y-114105641D01*
X107904677Y-114751593D01*
X107927164Y-115441453D01*
X108147901Y-115974359D01*
X108425130Y-116085262D01*
X108415362Y-116095030D01*
X108085911Y-116094743D01*
X107539914Y-116320344D01*
X107121812Y-116737717D01*
X106895258Y-117283319D01*
X106894743Y-117874089D01*
X104460000Y-117874089D01*
X104460000Y-113815132D01*
X108604737Y-113815132D01*
X109650000Y-114860395D01*
X110695263Y-113815132D01*
X110584359Y-113537901D01*
X109938407Y-113294677D01*
X109248547Y-113317164D01*
X108715641Y-113537901D01*
X108604737Y-113815132D01*
X104460000Y-113815132D01*
X104460000Y-112843599D01*
X114264699Y-112843599D01*
X114528281Y-113481515D01*
X115015918Y-113970004D01*
X115653373Y-114234699D01*
X116343599Y-114235301D01*
X116981515Y-113971719D01*
X117138375Y-113815132D01*
X128604737Y-113815132D01*
X129650000Y-114860395D01*
X130695263Y-113815132D01*
X130584359Y-113537901D01*
X129938407Y-113294677D01*
X129248547Y-113317164D01*
X128715641Y-113537901D01*
X128604737Y-113815132D01*
X117138375Y-113815132D01*
X117470004Y-113484082D01*
X117734699Y-112846627D01*
X117734701Y-112843599D01*
X134264699Y-112843599D01*
X134528281Y-113481515D01*
X135015918Y-113970004D01*
X135653373Y-114234699D01*
X136343599Y-114235301D01*
X136981515Y-113971719D01*
X137470004Y-113484082D01*
X137734699Y-112846627D01*
X137735301Y-112156401D01*
X137471719Y-111518485D01*
X136984082Y-111029996D01*
X136346627Y-110765301D01*
X135656401Y-110764699D01*
X135018485Y-111028281D01*
X134529996Y-111515918D01*
X134265301Y-112153373D01*
X134264699Y-112843599D01*
X117734701Y-112843599D01*
X117735301Y-112156401D01*
X117471719Y-111518485D01*
X116984082Y-111029996D01*
X116346627Y-110765301D01*
X115656401Y-110764699D01*
X115018485Y-111028281D01*
X114529996Y-111515918D01*
X114265301Y-112153373D01*
X114264699Y-112843599D01*
X104460000Y-112843599D01*
X104460000Y-101273691D01*
X127715000Y-101273691D01*
X127715000Y-101864250D01*
X127873750Y-102023000D01*
X128873000Y-102023000D01*
X128873000Y-100923750D01*
X128714250Y-100765000D01*
X128223690Y-100765000D01*
X127990301Y-100861673D01*
X127811673Y-101040302D01*
X127715000Y-101273691D01*
X104460000Y-101273691D01*
X104460000Y-97874089D01*
X106894743Y-97874089D01*
X107120344Y-98420086D01*
X107537717Y-98838188D01*
X108083319Y-99064742D01*
X108674089Y-99065257D01*
X109220086Y-98839656D01*
X109638188Y-98422283D01*
X109771250Y-98101834D01*
X110824543Y-98101834D01*
X111224853Y-99070658D01*
X111965443Y-99812542D01*
X112933567Y-100214542D01*
X113981834Y-100215457D01*
X114950658Y-99815147D01*
X115692542Y-99074557D01*
X116094542Y-98106433D01*
X116094744Y-97874089D01*
X117054743Y-97874089D01*
X117280344Y-98420086D01*
X117697717Y-98838188D01*
X118243319Y-99064742D01*
X118834089Y-99065257D01*
X119380086Y-98839656D01*
X119798188Y-98422283D01*
X120024742Y-97876681D01*
X120024744Y-97874089D01*
X126894743Y-97874089D01*
X127120344Y-98420086D01*
X127537717Y-98838188D01*
X128083319Y-99064742D01*
X128674089Y-99065257D01*
X129220086Y-98839656D01*
X129638188Y-98422283D01*
X129864742Y-97876681D01*
X129865257Y-97285911D01*
X129654474Y-96775776D01*
X130051453Y-96762836D01*
X130584359Y-96542099D01*
X130695263Y-96264868D01*
X129650000Y-95219605D01*
X129635858Y-95233748D01*
X129456253Y-95054143D01*
X129470395Y-95040000D01*
X129829605Y-95040000D01*
X130874868Y-96085263D01*
X131152099Y-95974359D01*
X131395323Y-95328407D01*
X131372836Y-94638547D01*
X131152099Y-94105641D01*
X130874868Y-93994737D01*
X129829605Y-95040000D01*
X129470395Y-95040000D01*
X128425132Y-93994737D01*
X128147901Y-94105641D01*
X127904677Y-94751593D01*
X127927164Y-95441453D01*
X128147901Y-95974359D01*
X128425130Y-96085262D01*
X128415362Y-96095030D01*
X128085911Y-96094743D01*
X127539914Y-96320344D01*
X127121812Y-96737717D01*
X126895258Y-97283319D01*
X126894743Y-97874089D01*
X120024744Y-97874089D01*
X120025257Y-97285911D01*
X119799656Y-96739914D01*
X119382283Y-96321812D01*
X118836681Y-96095258D01*
X118245911Y-96094743D01*
X117699914Y-96320344D01*
X117281812Y-96737717D01*
X117055258Y-97283319D01*
X117054743Y-97874089D01*
X116094744Y-97874089D01*
X116095457Y-97058166D01*
X115695147Y-96089342D01*
X114954557Y-95347458D01*
X113986433Y-94945458D01*
X112938166Y-94944543D01*
X111969342Y-95344853D01*
X111227458Y-96085443D01*
X110825458Y-97053567D01*
X110824543Y-98101834D01*
X109771250Y-98101834D01*
X109864742Y-97876681D01*
X109865257Y-97285911D01*
X109654474Y-96775776D01*
X110051453Y-96762836D01*
X110584359Y-96542099D01*
X110695263Y-96264868D01*
X109650000Y-95219605D01*
X109635858Y-95233748D01*
X109456253Y-95054143D01*
X109470395Y-95040000D01*
X109829605Y-95040000D01*
X110874868Y-96085263D01*
X111152099Y-95974359D01*
X111395323Y-95328407D01*
X111372836Y-94638547D01*
X111152099Y-94105641D01*
X110874868Y-93994737D01*
X109829605Y-95040000D01*
X109470395Y-95040000D01*
X108425132Y-93994737D01*
X108147901Y-94105641D01*
X107904677Y-94751593D01*
X107927164Y-95441453D01*
X108147901Y-95974359D01*
X108425130Y-96085262D01*
X108415362Y-96095030D01*
X108085911Y-96094743D01*
X107539914Y-96320344D01*
X107121812Y-96737717D01*
X106895258Y-97283319D01*
X106894743Y-97874089D01*
X104460000Y-97874089D01*
X104460000Y-93815132D01*
X108604737Y-93815132D01*
X109650000Y-94860395D01*
X110695263Y-93815132D01*
X110584359Y-93537901D01*
X109938407Y-93294677D01*
X109248547Y-93317164D01*
X108715641Y-93537901D01*
X108604737Y-93815132D01*
X104460000Y-93815132D01*
X104460000Y-92843599D01*
X114264699Y-92843599D01*
X114528281Y-93481515D01*
X115015918Y-93970004D01*
X115653373Y-94234699D01*
X116343599Y-94235301D01*
X116981515Y-93971719D01*
X117138375Y-93815132D01*
X128604737Y-93815132D01*
X129650000Y-94860395D01*
X130695263Y-93815132D01*
X130584359Y-93537901D01*
X129938407Y-93294677D01*
X129248547Y-93317164D01*
X128715641Y-93537901D01*
X128604737Y-93815132D01*
X117138375Y-93815132D01*
X117470004Y-93484082D01*
X117734699Y-92846627D01*
X117735301Y-92156401D01*
X117471719Y-91518485D01*
X116984082Y-91029996D01*
X116346627Y-90765301D01*
X115656401Y-90764699D01*
X115018485Y-91028281D01*
X114529996Y-91515918D01*
X114265301Y-92153373D01*
X114264699Y-92843599D01*
X104460000Y-92843599D01*
X104460000Y-83803991D01*
X107464735Y-83803991D01*
X107697932Y-84368371D01*
X108129357Y-84800551D01*
X108693330Y-85034733D01*
X109303991Y-85035265D01*
X109868371Y-84802068D01*
X110090668Y-84580159D01*
X110599446Y-84580159D01*
X110685852Y-84836643D01*
X111259336Y-85046458D01*
X111869460Y-85020839D01*
X112314148Y-84836643D01*
X112400554Y-84580159D01*
X111500000Y-83679605D01*
X110599446Y-84580159D01*
X110090668Y-84580159D01*
X110300551Y-84370643D01*
X110304294Y-84361628D01*
X110419841Y-84400554D01*
X111320395Y-83500000D01*
X111679605Y-83500000D01*
X112580159Y-84400554D01*
X112695214Y-84361793D01*
X112697932Y-84368371D01*
X113129357Y-84800551D01*
X113693330Y-85034733D01*
X114303991Y-85035265D01*
X114868371Y-84802068D01*
X115300551Y-84370643D01*
X115534733Y-83806670D01*
X115535265Y-83196009D01*
X115302068Y-82631629D01*
X114870643Y-82199449D01*
X114306670Y-81965267D01*
X113696009Y-81964735D01*
X113131629Y-82197932D01*
X112699449Y-82629357D01*
X112695706Y-82638372D01*
X112580159Y-82599446D01*
X111679605Y-83500000D01*
X111320395Y-83500000D01*
X110419841Y-82599446D01*
X110304786Y-82638207D01*
X110302068Y-82631629D01*
X110090650Y-82419841D01*
X110599446Y-82419841D01*
X111500000Y-83320395D01*
X112400554Y-82419841D01*
X112314148Y-82163357D01*
X111740664Y-81953542D01*
X111130540Y-81979161D01*
X110685852Y-82163357D01*
X110599446Y-82419841D01*
X110090650Y-82419841D01*
X109870643Y-82199449D01*
X109306670Y-81965267D01*
X108696009Y-81964735D01*
X108131629Y-82197932D01*
X107699449Y-82629357D01*
X107465267Y-83193330D01*
X107464735Y-83803991D01*
X104460000Y-83803991D01*
X104460000Y-77862558D01*
X104575602Y-77978362D01*
X105433502Y-78334593D01*
X106362422Y-78335404D01*
X107220943Y-77980671D01*
X107878362Y-77324398D01*
X108234593Y-76466498D01*
X108234596Y-76462422D01*
X114764596Y-76462422D01*
X115119329Y-77320943D01*
X115775602Y-77978362D01*
X116633502Y-78334593D01*
X117562422Y-78335404D01*
X118420943Y-77980671D01*
X118527711Y-77874089D01*
X126894743Y-77874089D01*
X127120344Y-78420086D01*
X127537717Y-78838188D01*
X128083319Y-79064742D01*
X128674089Y-79065257D01*
X129220086Y-78839656D01*
X129638188Y-78422283D01*
X129771250Y-78101834D01*
X130824543Y-78101834D01*
X131224853Y-79070658D01*
X131965443Y-79812542D01*
X132933567Y-80214542D01*
X133981834Y-80215457D01*
X134950658Y-79815147D01*
X135692542Y-79074557D01*
X136094542Y-78106433D01*
X136095457Y-77058166D01*
X135695147Y-76089342D01*
X134954557Y-75347458D01*
X133986433Y-74945458D01*
X132938166Y-74944543D01*
X131969342Y-75344853D01*
X131227458Y-76085443D01*
X130825458Y-77053567D01*
X130824543Y-78101834D01*
X129771250Y-78101834D01*
X129864742Y-77876681D01*
X129865257Y-77285911D01*
X129654474Y-76775776D01*
X130051453Y-76762836D01*
X130584359Y-76542099D01*
X130695263Y-76264868D01*
X129650000Y-75219605D01*
X129635858Y-75233748D01*
X129456253Y-75054143D01*
X129470395Y-75040000D01*
X129829605Y-75040000D01*
X130874868Y-76085263D01*
X131152099Y-75974359D01*
X131395323Y-75328407D01*
X131372836Y-74638547D01*
X131152099Y-74105641D01*
X130874868Y-73994737D01*
X129829605Y-75040000D01*
X129470395Y-75040000D01*
X128425132Y-73994737D01*
X128147901Y-74105641D01*
X127904677Y-74751593D01*
X127927164Y-75441453D01*
X128147901Y-75974359D01*
X128425130Y-76085262D01*
X128415362Y-76095030D01*
X128085911Y-76094743D01*
X127539914Y-76320344D01*
X127121812Y-76737717D01*
X126895258Y-77283319D01*
X126894743Y-77874089D01*
X118527711Y-77874089D01*
X119078362Y-77324398D01*
X119434593Y-76466498D01*
X119435404Y-75537578D01*
X119080671Y-74679057D01*
X118424398Y-74021638D01*
X117927077Y-73815132D01*
X128604737Y-73815132D01*
X129650000Y-74860395D01*
X130695263Y-73815132D01*
X130584359Y-73537901D01*
X129938407Y-73294677D01*
X129248547Y-73317164D01*
X128715641Y-73537901D01*
X128604737Y-73815132D01*
X117927077Y-73815132D01*
X117566498Y-73665407D01*
X116637578Y-73664596D01*
X115779057Y-74019329D01*
X115121638Y-74675602D01*
X114765407Y-75533502D01*
X114764596Y-76462422D01*
X108234596Y-76462422D01*
X108235404Y-75537578D01*
X107880671Y-74679057D01*
X107224398Y-74021638D01*
X106366498Y-73665407D01*
X105437578Y-73664596D01*
X104579057Y-74019329D01*
X104460000Y-74138178D01*
X104460000Y-70080159D01*
X108099446Y-70080159D01*
X108185852Y-70336643D01*
X108759336Y-70546458D01*
X109369460Y-70520839D01*
X109814148Y-70336643D01*
X109900554Y-70080159D01*
X109000000Y-69179605D01*
X108099446Y-70080159D01*
X104460000Y-70080159D01*
X104460000Y-68460000D01*
X107563057Y-68460000D01*
X107453542Y-68759336D01*
G36*
X141100000Y-104360000D02*
X148035025Y-104360000D01*
X148093397Y-104399884D01*
X147998559Y-104460910D01*
X147909505Y-104591245D01*
X147815000Y-104685750D01*
X147815000Y-104801310D01*
X147823468Y-104821753D01*
X147802560Y-104925000D01*
X147802560Y-105475000D01*
X147826944Y-105604589D01*
X147802560Y-105725000D01*
X147802560Y-106040000D01*
X147112376Y-106040000D01*
X147030327Y-105957808D01*
X146686799Y-105815162D01*
X146314833Y-105814838D01*
X145971057Y-105956883D01*
X145707808Y-106219673D01*
X145565162Y-106563201D01*
X145564838Y-106935167D01*
X145587494Y-106990000D01*
X141314803Y-106990000D01*
X141060000Y-106735198D01*
X141060000Y-104352043D01*
X141100000Y-104360000D01*
X141100000Y-104360000D01*
G37*
X141100000Y-104360000D02*
X148035025Y-104360000D01*
X148093397Y-104399884D01*
X147998559Y-104460910D01*
X147909505Y-104591245D01*
X147815000Y-104685750D01*
X147815000Y-104801310D01*
X147823468Y-104821753D01*
X147802560Y-104925000D01*
X147802560Y-105475000D01*
X147826944Y-105604589D01*
X147802560Y-105725000D01*
X147802560Y-106040000D01*
X147112376Y-106040000D01*
X147030327Y-105957808D01*
X146686799Y-105815162D01*
X146314833Y-105814838D01*
X145971057Y-105956883D01*
X145707808Y-106219673D01*
X145565162Y-106563201D01*
X145564838Y-106935167D01*
X145587494Y-106990000D01*
X141314803Y-106990000D01*
X141060000Y-106735198D01*
X141060000Y-104352043D01*
X141100000Y-104360000D01*
G36*
X154140302Y-104413327D02*
X154204696Y-104440000D01*
X153794622Y-104440000D01*
X153951441Y-104339090D01*
X153997969Y-104270994D01*
X154140302Y-104413327D01*
X154140302Y-104413327D01*
G37*
X154140302Y-104413327D02*
X154204696Y-104440000D01*
X153794622Y-104440000D01*
X153951441Y-104339090D01*
X153997969Y-104270994D01*
X154140302Y-104413327D01*
G36*
X143477560Y-97500000D02*
X143521838Y-97735317D01*
X143587633Y-97837565D01*
X142962599Y-98462599D01*
X142797852Y-98709161D01*
X142740000Y-99000000D01*
X142740000Y-99135025D01*
X142700116Y-99193397D01*
X142660000Y-99131054D01*
X142660000Y-98414802D01*
X143287401Y-97787401D01*
X143452148Y-97540839D01*
X143477560Y-97413085D01*
X143477560Y-97500000D01*
X143477560Y-97500000D01*
G37*
X143477560Y-97500000D02*
X143521838Y-97735317D01*
X143587633Y-97837565D01*
X142962599Y-98462599D01*
X142797852Y-98709161D01*
X142740000Y-99000000D01*
X142740000Y-99135025D01*
X142700116Y-99193397D01*
X142660000Y-99131054D01*
X142660000Y-98414802D01*
X143287401Y-97787401D01*
X143452148Y-97540839D01*
X143477560Y-97413085D01*
X143477560Y-97500000D01*
G36*
X149843748Y-95025858D02*
X149829605Y-95040000D01*
X149843748Y-95054143D01*
X149664143Y-95233748D01*
X149650000Y-95219605D01*
X149635858Y-95233748D01*
X149456253Y-95054143D01*
X149470395Y-95040000D01*
X149456253Y-95025858D01*
X149635858Y-94846253D01*
X149650000Y-94860395D01*
X149664143Y-94846253D01*
X149843748Y-95025858D01*
X149843748Y-95025858D01*
G37*
X149843748Y-95025858D02*
X149829605Y-95040000D01*
X149843748Y-95054143D01*
X149664143Y-95233748D01*
X149650000Y-95219605D01*
X149635858Y-95233748D01*
X149456253Y-95054143D01*
X149470395Y-95040000D01*
X149456253Y-95025858D01*
X149635858Y-94846253D01*
X149650000Y-94860395D01*
X149664143Y-94846253D01*
X149843748Y-95025858D01*
M02*
