G04 #@! TF.FileFunction,Legend,Top*
%FSLAX46Y46*%
G04 Gerber Fmt 4.6, Leading zero omitted, Abs format (unit mm)*
G04 Created by KiCad (PCBNEW 4.0.7) date Thursday, April 11, 2019 'PMt' 06:08:24 PM*
%MOMM*%
%LPD*%
G01*
G04 APERTURE LIST*
%ADD10C,0.100000*%
%ADD11C,0.120000*%
%ADD12C,0.203200*%
%ADD13C,0.150000*%
%ADD14C,0.152400*%
G04 APERTURE END LIST*
D10*
D11*
X126475000Y-70595000D02*
X140445000Y-70595000D01*
X140445000Y-70595000D02*
X140445000Y-84565000D01*
X140445000Y-84565000D02*
X126475000Y-84565000D01*
X126475000Y-84565000D02*
X126475000Y-70595000D01*
X146475000Y-70595000D02*
X160445000Y-70595000D01*
X160445000Y-70595000D02*
X160445000Y-84565000D01*
X160445000Y-84565000D02*
X146475000Y-84565000D01*
X146475000Y-84565000D02*
X146475000Y-70595000D01*
X106475000Y-90595000D02*
X120445000Y-90595000D01*
X120445000Y-90595000D02*
X120445000Y-104565000D01*
X120445000Y-104565000D02*
X106475000Y-104565000D01*
X106475000Y-104565000D02*
X106475000Y-90595000D01*
X126475000Y-90595000D02*
X140445000Y-90595000D01*
X140445000Y-90595000D02*
X140445000Y-104565000D01*
X140445000Y-104565000D02*
X126475000Y-104565000D01*
X126475000Y-104565000D02*
X126475000Y-90595000D01*
X146475000Y-90595000D02*
X160445000Y-90595000D01*
X160445000Y-90595000D02*
X160445000Y-104565000D01*
X160445000Y-104565000D02*
X146475000Y-104565000D01*
X146475000Y-104565000D02*
X146475000Y-90595000D01*
X106475000Y-110595000D02*
X120445000Y-110595000D01*
X120445000Y-110595000D02*
X120445000Y-124565000D01*
X120445000Y-124565000D02*
X106475000Y-124565000D01*
X106475000Y-124565000D02*
X106475000Y-110595000D01*
X126475000Y-110595000D02*
X140445000Y-110595000D01*
X140445000Y-110595000D02*
X140445000Y-124565000D01*
X140445000Y-124565000D02*
X126475000Y-124565000D01*
X126475000Y-124565000D02*
X126475000Y-110595000D01*
X146475000Y-110595000D02*
X160445000Y-110595000D01*
X160445000Y-110595000D02*
X160445000Y-124565000D01*
X160445000Y-124565000D02*
X146475000Y-124565000D01*
X146475000Y-124565000D02*
X146475000Y-110595000D01*
D12*
X114500000Y-74500000D02*
X108500000Y-74500000D01*
X115000000Y-76000000D02*
G75*
G03X115000000Y-76000000I-3500000J0D01*
G01*
X117500000Y-82500000D02*
X105500000Y-82500000D01*
X105500000Y-82500000D02*
X105500000Y-69500000D01*
X105500000Y-69500000D02*
X117500000Y-69500000D01*
X117500000Y-69500000D02*
X117500000Y-82500000D01*
D13*
X132166667Y-82654762D02*
X132309524Y-82702381D01*
X132547620Y-82702381D01*
X132642858Y-82654762D01*
X132690477Y-82607143D01*
X132738096Y-82511905D01*
X132738096Y-82416667D01*
X132690477Y-82321429D01*
X132642858Y-82273810D01*
X132547620Y-82226190D01*
X132357143Y-82178571D01*
X132261905Y-82130952D01*
X132214286Y-82083333D01*
X132166667Y-81988095D01*
X132166667Y-81892857D01*
X132214286Y-81797619D01*
X132261905Y-81750000D01*
X132357143Y-81702381D01*
X132595239Y-81702381D01*
X132738096Y-81750000D01*
X133071429Y-81702381D02*
X133309524Y-82702381D01*
X133500001Y-81988095D01*
X133690477Y-82702381D01*
X133928572Y-81702381D01*
X134833334Y-82702381D02*
X134261905Y-82702381D01*
X134547619Y-82702381D02*
X134547619Y-81702381D01*
X134452381Y-81845238D01*
X134357143Y-81940476D01*
X134261905Y-81988095D01*
X152416667Y-82654762D02*
X152559524Y-82702381D01*
X152797620Y-82702381D01*
X152892858Y-82654762D01*
X152940477Y-82607143D01*
X152988096Y-82511905D01*
X152988096Y-82416667D01*
X152940477Y-82321429D01*
X152892858Y-82273810D01*
X152797620Y-82226190D01*
X152607143Y-82178571D01*
X152511905Y-82130952D01*
X152464286Y-82083333D01*
X152416667Y-81988095D01*
X152416667Y-81892857D01*
X152464286Y-81797619D01*
X152511905Y-81750000D01*
X152607143Y-81702381D01*
X152845239Y-81702381D01*
X152988096Y-81750000D01*
X153321429Y-81702381D02*
X153559524Y-82702381D01*
X153750001Y-81988095D01*
X153940477Y-82702381D01*
X154178572Y-81702381D01*
X154511905Y-81797619D02*
X154559524Y-81750000D01*
X154654762Y-81702381D01*
X154892858Y-81702381D01*
X154988096Y-81750000D01*
X155035715Y-81797619D01*
X155083334Y-81892857D01*
X155083334Y-81988095D01*
X155035715Y-82130952D01*
X154464286Y-82702381D01*
X155083334Y-82702381D01*
X112166667Y-102654762D02*
X112309524Y-102702381D01*
X112547620Y-102702381D01*
X112642858Y-102654762D01*
X112690477Y-102607143D01*
X112738096Y-102511905D01*
X112738096Y-102416667D01*
X112690477Y-102321429D01*
X112642858Y-102273810D01*
X112547620Y-102226190D01*
X112357143Y-102178571D01*
X112261905Y-102130952D01*
X112214286Y-102083333D01*
X112166667Y-101988095D01*
X112166667Y-101892857D01*
X112214286Y-101797619D01*
X112261905Y-101750000D01*
X112357143Y-101702381D01*
X112595239Y-101702381D01*
X112738096Y-101750000D01*
X113071429Y-101702381D02*
X113309524Y-102702381D01*
X113500001Y-101988095D01*
X113690477Y-102702381D01*
X113928572Y-101702381D01*
X114214286Y-101702381D02*
X114833334Y-101702381D01*
X114500000Y-102083333D01*
X114642858Y-102083333D01*
X114738096Y-102130952D01*
X114785715Y-102178571D01*
X114833334Y-102273810D01*
X114833334Y-102511905D01*
X114785715Y-102607143D01*
X114738096Y-102654762D01*
X114642858Y-102702381D01*
X114357143Y-102702381D01*
X114261905Y-102654762D01*
X114214286Y-102607143D01*
X132166667Y-102654762D02*
X132309524Y-102702381D01*
X132547620Y-102702381D01*
X132642858Y-102654762D01*
X132690477Y-102607143D01*
X132738096Y-102511905D01*
X132738096Y-102416667D01*
X132690477Y-102321429D01*
X132642858Y-102273810D01*
X132547620Y-102226190D01*
X132357143Y-102178571D01*
X132261905Y-102130952D01*
X132214286Y-102083333D01*
X132166667Y-101988095D01*
X132166667Y-101892857D01*
X132214286Y-101797619D01*
X132261905Y-101750000D01*
X132357143Y-101702381D01*
X132595239Y-101702381D01*
X132738096Y-101750000D01*
X133071429Y-101702381D02*
X133309524Y-102702381D01*
X133500001Y-101988095D01*
X133690477Y-102702381D01*
X133928572Y-101702381D01*
X134738096Y-102035714D02*
X134738096Y-102702381D01*
X134500000Y-101654762D02*
X134261905Y-102369048D01*
X134880953Y-102369048D01*
X152166667Y-102404762D02*
X152309524Y-102452381D01*
X152547620Y-102452381D01*
X152642858Y-102404762D01*
X152690477Y-102357143D01*
X152738096Y-102261905D01*
X152738096Y-102166667D01*
X152690477Y-102071429D01*
X152642858Y-102023810D01*
X152547620Y-101976190D01*
X152357143Y-101928571D01*
X152261905Y-101880952D01*
X152214286Y-101833333D01*
X152166667Y-101738095D01*
X152166667Y-101642857D01*
X152214286Y-101547619D01*
X152261905Y-101500000D01*
X152357143Y-101452381D01*
X152595239Y-101452381D01*
X152738096Y-101500000D01*
X153071429Y-101452381D02*
X153309524Y-102452381D01*
X153500001Y-101738095D01*
X153690477Y-102452381D01*
X153928572Y-101452381D01*
X154785715Y-101452381D02*
X154309524Y-101452381D01*
X154261905Y-101928571D01*
X154309524Y-101880952D01*
X154404762Y-101833333D01*
X154642858Y-101833333D01*
X154738096Y-101880952D01*
X154785715Y-101928571D01*
X154833334Y-102023810D01*
X154833334Y-102261905D01*
X154785715Y-102357143D01*
X154738096Y-102404762D01*
X154642858Y-102452381D01*
X154404762Y-102452381D01*
X154309524Y-102404762D01*
X154261905Y-102357143D01*
X111916667Y-122654762D02*
X112059524Y-122702381D01*
X112297620Y-122702381D01*
X112392858Y-122654762D01*
X112440477Y-122607143D01*
X112488096Y-122511905D01*
X112488096Y-122416667D01*
X112440477Y-122321429D01*
X112392858Y-122273810D01*
X112297620Y-122226190D01*
X112107143Y-122178571D01*
X112011905Y-122130952D01*
X111964286Y-122083333D01*
X111916667Y-121988095D01*
X111916667Y-121892857D01*
X111964286Y-121797619D01*
X112011905Y-121750000D01*
X112107143Y-121702381D01*
X112345239Y-121702381D01*
X112488096Y-121750000D01*
X112821429Y-121702381D02*
X113059524Y-122702381D01*
X113250001Y-121988095D01*
X113440477Y-122702381D01*
X113678572Y-121702381D01*
X114488096Y-121702381D02*
X114297619Y-121702381D01*
X114202381Y-121750000D01*
X114154762Y-121797619D01*
X114059524Y-121940476D01*
X114011905Y-122130952D01*
X114011905Y-122511905D01*
X114059524Y-122607143D01*
X114107143Y-122654762D01*
X114202381Y-122702381D01*
X114392858Y-122702381D01*
X114488096Y-122654762D01*
X114535715Y-122607143D01*
X114583334Y-122511905D01*
X114583334Y-122273810D01*
X114535715Y-122178571D01*
X114488096Y-122130952D01*
X114392858Y-122083333D01*
X114202381Y-122083333D01*
X114107143Y-122130952D01*
X114059524Y-122178571D01*
X114011905Y-122273810D01*
X132416667Y-122654762D02*
X132559524Y-122702381D01*
X132797620Y-122702381D01*
X132892858Y-122654762D01*
X132940477Y-122607143D01*
X132988096Y-122511905D01*
X132988096Y-122416667D01*
X132940477Y-122321429D01*
X132892858Y-122273810D01*
X132797620Y-122226190D01*
X132607143Y-122178571D01*
X132511905Y-122130952D01*
X132464286Y-122083333D01*
X132416667Y-121988095D01*
X132416667Y-121892857D01*
X132464286Y-121797619D01*
X132511905Y-121750000D01*
X132607143Y-121702381D01*
X132845239Y-121702381D01*
X132988096Y-121750000D01*
X133321429Y-121702381D02*
X133559524Y-122702381D01*
X133750001Y-121988095D01*
X133940477Y-122702381D01*
X134178572Y-121702381D01*
X134464286Y-121702381D02*
X135130953Y-121702381D01*
X134702381Y-122702381D01*
X152166667Y-122654762D02*
X152309524Y-122702381D01*
X152547620Y-122702381D01*
X152642858Y-122654762D01*
X152690477Y-122607143D01*
X152738096Y-122511905D01*
X152738096Y-122416667D01*
X152690477Y-122321429D01*
X152642858Y-122273810D01*
X152547620Y-122226190D01*
X152357143Y-122178571D01*
X152261905Y-122130952D01*
X152214286Y-122083333D01*
X152166667Y-121988095D01*
X152166667Y-121892857D01*
X152214286Y-121797619D01*
X152261905Y-121750000D01*
X152357143Y-121702381D01*
X152595239Y-121702381D01*
X152738096Y-121750000D01*
X153071429Y-121702381D02*
X153309524Y-122702381D01*
X153500001Y-121988095D01*
X153690477Y-122702381D01*
X153928572Y-121702381D01*
X154452381Y-122130952D02*
X154357143Y-122083333D01*
X154309524Y-122035714D01*
X154261905Y-121940476D01*
X154261905Y-121892857D01*
X154309524Y-121797619D01*
X154357143Y-121750000D01*
X154452381Y-121702381D01*
X154642858Y-121702381D01*
X154738096Y-121750000D01*
X154785715Y-121797619D01*
X154833334Y-121892857D01*
X154833334Y-121940476D01*
X154785715Y-122035714D01*
X154738096Y-122083333D01*
X154642858Y-122130952D01*
X154452381Y-122130952D01*
X154357143Y-122178571D01*
X154309524Y-122226190D01*
X154261905Y-122321429D01*
X154261905Y-122511905D01*
X154309524Y-122607143D01*
X154357143Y-122654762D01*
X154452381Y-122702381D01*
X154642858Y-122702381D01*
X154738096Y-122654762D01*
X154785715Y-122607143D01*
X154833334Y-122511905D01*
X154833334Y-122321429D01*
X154785715Y-122226190D01*
X154738096Y-122178571D01*
X154642858Y-122130952D01*
D14*
X110121144Y-76808429D02*
X110230001Y-76844714D01*
X110411430Y-76844714D01*
X110484001Y-76808429D01*
X110520287Y-76772143D01*
X110556572Y-76699571D01*
X110556572Y-76627000D01*
X110520287Y-76554429D01*
X110484001Y-76518143D01*
X110411430Y-76481857D01*
X110266287Y-76445571D01*
X110193715Y-76409286D01*
X110157430Y-76373000D01*
X110121144Y-76300429D01*
X110121144Y-76227857D01*
X110157430Y-76155286D01*
X110193715Y-76119000D01*
X110266287Y-76082714D01*
X110447715Y-76082714D01*
X110556572Y-76119000D01*
X110810572Y-76082714D02*
X110992001Y-76844714D01*
X111137144Y-76300429D01*
X111282286Y-76844714D01*
X111463715Y-76082714D01*
X112153143Y-76844714D02*
X111717715Y-76844714D01*
X111935429Y-76844714D02*
X111935429Y-76082714D01*
X111862858Y-76191571D01*
X111790286Y-76264143D01*
X111717715Y-76300429D01*
X112624857Y-76082714D02*
X112697429Y-76082714D01*
X112770000Y-76119000D01*
X112806286Y-76155286D01*
X112842572Y-76227857D01*
X112878857Y-76373000D01*
X112878857Y-76554429D01*
X112842572Y-76699571D01*
X112806286Y-76772143D01*
X112770000Y-76808429D01*
X112697429Y-76844714D01*
X112624857Y-76844714D01*
X112552286Y-76808429D01*
X112516000Y-76772143D01*
X112479715Y-76699571D01*
X112443429Y-76554429D01*
X112443429Y-76373000D01*
X112479715Y-76227857D01*
X112516000Y-76155286D01*
X112552286Y-76119000D01*
X112624857Y-76082714D01*
M02*
