G04 #@! TF.FileFunction,Soldermask,Bot*
%FSLAX46Y46*%
G04 Gerber Fmt 4.6, Leading zero omitted, Abs format (unit mm)*
G04 Created by KiCad (PCBNEW 4.0.7) date Thursday, April 11, 2019 'PMt' 06:08:24 PM*
%MOMM*%
%LPD*%
G01*
G04 APERTURE LIST*
%ADD10C,0.100000*%
%ADD11R,1.900000X1.650000*%
%ADD12R,1.650000X1.900000*%
%ADD13R,0.900000X2.400000*%
%ADD14R,2.400000X2.100000*%
%ADD15C,1.400000*%
%ADD16R,1.700000X1.900000*%
%ADD17R,1.900000X1.700000*%
%ADD18C,2.600000*%
%ADD19C,4.400000*%
%ADD20C,2.100000*%
%ADD21R,2.000000X1.800000*%
%ADD22R,0.950000X1.900000*%
%ADD23R,1.900000X0.950000*%
%ADD24R,2.000000X1.700000*%
%ADD25C,2.200000*%
%ADD26C,3.800000*%
%ADD27R,1.924000X1.924000*%
%ADD28C,1.924000*%
G04 APERTURE END LIST*
D10*
D11*
X136250000Y-95000000D03*
X138750000Y-95000000D03*
D12*
X134500000Y-102250000D03*
X134500000Y-104750000D03*
X146250000Y-115250000D03*
X146250000Y-117750000D03*
X134500000Y-109500000D03*
X134500000Y-107000000D03*
D11*
X152750000Y-103250000D03*
X155250000Y-103250000D03*
D12*
X144750000Y-96750000D03*
X144750000Y-94250000D03*
X152750000Y-108250000D03*
X152750000Y-110750000D03*
X160750000Y-108250000D03*
X160750000Y-110750000D03*
D13*
X140900000Y-75450000D03*
X141700000Y-75450000D03*
X142500000Y-75450000D03*
X143300000Y-75450000D03*
X144100000Y-75450000D03*
D14*
X138050000Y-75350000D03*
X138050000Y-69900000D03*
X146950000Y-75350000D03*
X146950000Y-69900000D03*
D15*
X140300000Y-72750000D03*
X144700000Y-72750000D03*
D16*
X143750000Y-81850000D03*
X143750000Y-79150000D03*
X141750000Y-81850000D03*
X141750000Y-79150000D03*
D17*
X153650000Y-87500000D03*
X156350000Y-87500000D03*
X139650000Y-115250000D03*
X142350000Y-115250000D03*
D18*
X136000000Y-72500000D03*
X129650000Y-75040000D03*
D19*
X133460000Y-77580000D03*
D20*
X128380000Y-77580000D03*
X138540000Y-77580000D03*
D18*
X156000000Y-72500000D03*
X149650000Y-75040000D03*
D19*
X153460000Y-77580000D03*
D20*
X148380000Y-77580000D03*
X158540000Y-77580000D03*
D18*
X116000000Y-92500000D03*
X109650000Y-95040000D03*
D19*
X113460000Y-97580000D03*
D20*
X108380000Y-97580000D03*
X118540000Y-97580000D03*
D18*
X136000000Y-92500000D03*
X129650000Y-95040000D03*
D19*
X133460000Y-97580000D03*
D20*
X128380000Y-97580000D03*
X138540000Y-97580000D03*
D18*
X156000000Y-92500000D03*
X149650000Y-95040000D03*
D19*
X153460000Y-97580000D03*
D20*
X148380000Y-97580000D03*
X158540000Y-97580000D03*
D18*
X116000000Y-112500000D03*
X109650000Y-115040000D03*
D19*
X113460000Y-117580000D03*
D20*
X108380000Y-117580000D03*
X118540000Y-117580000D03*
D18*
X136000000Y-112500000D03*
X129650000Y-115040000D03*
D19*
X133460000Y-117580000D03*
D20*
X128380000Y-117580000D03*
X138540000Y-117580000D03*
D18*
X156000000Y-112500000D03*
X149650000Y-115040000D03*
D19*
X153460000Y-117580000D03*
D20*
X148380000Y-117580000D03*
X158540000Y-117580000D03*
D21*
X153650000Y-81250000D03*
X160850000Y-81250000D03*
X153650000Y-84250000D03*
X160850000Y-84250000D03*
D22*
X139500000Y-100300000D03*
X140300000Y-100300000D03*
X141100000Y-100300000D03*
X141900000Y-100300000D03*
X142700000Y-100300000D03*
X143500000Y-100300000D03*
X144300000Y-100300000D03*
X145100000Y-100300000D03*
X145900000Y-100300000D03*
X146700000Y-100300000D03*
X147500000Y-100300000D03*
D23*
X149200000Y-102000000D03*
X149200000Y-102800000D03*
X149200000Y-103600000D03*
X149200000Y-104400000D03*
X149200000Y-105200000D03*
X149200000Y-106000000D03*
X149200000Y-106800000D03*
X149200000Y-107600000D03*
X149200000Y-108400000D03*
X149200000Y-109200000D03*
X149200000Y-110000000D03*
D22*
X147500000Y-111700000D03*
X146700000Y-111700000D03*
X145900000Y-111700000D03*
X145100000Y-111700000D03*
X144300000Y-111700000D03*
X143500000Y-111700000D03*
X142700000Y-111700000D03*
X141900000Y-111700000D03*
X141100000Y-111700000D03*
X140300000Y-111700000D03*
X139500000Y-111700000D03*
D23*
X137800000Y-110000000D03*
X137800000Y-109200000D03*
X137800000Y-108400000D03*
X137800000Y-107600000D03*
X137800000Y-106800000D03*
X137800000Y-106000000D03*
X137800000Y-105200000D03*
X137800000Y-104400000D03*
X137800000Y-103600000D03*
X137800000Y-102800000D03*
X137800000Y-102000000D03*
D24*
X155100000Y-108000000D03*
X158400000Y-108000000D03*
X158400000Y-110000000D03*
X155100000Y-110000000D03*
D16*
X129000000Y-102150000D03*
X129000000Y-104850000D03*
X131250000Y-102150000D03*
X131250000Y-104850000D03*
D25*
X109000000Y-69000000D03*
X109000000Y-83500000D03*
X111500000Y-83500000D03*
X114000000Y-83500000D03*
X114000000Y-69000000D03*
D26*
X117100000Y-76000000D03*
X105900000Y-76000000D03*
D27*
X150540000Y-88770000D03*
D28*
X150540000Y-86230000D03*
X148000000Y-88770000D03*
X148000000Y-86230000D03*
X145460000Y-88770000D03*
X145460000Y-86230000D03*
M02*
