M48
;DRILL file {KiCad 4.0.7} date Tuesday, July 10, 2018 'AMt' 11:38:20 AM
;FORMAT={-:-/ absolute / inch / decimal}
FMAT,2
INCH,TZ
T1C0.016
T2C0.039
T3C0.040
T4C0.059
T5C0.102
T6C0.039
T7C0.067
T8C0.157
%
G90
G05
M72
T1
X5.5217Y-4.2913
X5.5512Y-4.3209
X5.5906Y-4.2913
X5.6201Y-4.3209
X5.6496Y-4.2913
X5.6791Y-4.3209
X5.7087Y-4.2913
X5.748Y-4.3209
X5.7677Y-4.2028
X5.7972Y-4.0157
X5.7972Y-4.1142
X5.7972Y-4.2421
T2
X4.2913Y-2.7165
X4.2913Y-3.2874
X4.3898Y-3.2874
X4.4882Y-2.7165
X4.4882Y-3.2874
T3
X5.7268Y-3.3949
X5.7268Y-3.4949
X5.8268Y-3.3949
X5.8268Y-3.4949
X5.9268Y-3.3949
X5.9268Y-3.4949
T4
X4.3169Y-3.7417
X4.3169Y-4.5291
X4.5669Y-3.6417
X4.5669Y-4.4291
X5.1043Y-2.9543
X5.1043Y-3.7417
X5.1043Y-4.5291
X5.3543Y-2.8543
X5.3543Y-3.6417
X5.3543Y-4.4291
X5.8917Y-2.9543
X5.8917Y-3.7417
X5.8917Y-4.5291
X6.1417Y-2.8543
X6.1417Y-3.6417
X6.1417Y-4.4291
T5
X4.1693Y-2.9921
X4.6102Y-2.9921
T6
X5.5236Y-2.8642
X5.6969Y-2.8642
T7
X4.2669Y-3.8417
X4.2669Y-4.6291
X4.6669Y-3.8417
X4.6669Y-4.6291
X5.0543Y-3.0543
X5.0543Y-3.8417
X5.0543Y-4.6291
X5.4543Y-3.0543
X5.4543Y-3.8417
X5.4543Y-4.6291
X5.8417Y-3.0543
X5.8417Y-3.8417
X5.8417Y-4.6291
X6.2417Y-3.0543
X6.2417Y-3.8417
X6.2417Y-4.6291
T8
X4.4669Y-3.8417
X4.4669Y-4.6291
X5.2543Y-3.0543
X5.2543Y-3.8417
X5.2543Y-4.6291
X6.0417Y-3.0543
X6.0417Y-3.8417
X6.0417Y-4.6291
T0
M30
