G04 #@! TF.FileFunction,Legend,Bot*
%FSLAX46Y46*%
G04 Gerber Fmt 4.6, Leading zero omitted, Abs format (unit mm)*
G04 Created by KiCad (PCBNEW 4.0.7) date Thursday, April 11, 2019 'PMt' 06:08:24 PM*
%MOMM*%
%LPD*%
G01*
G04 APERTURE LIST*
%ADD10C,0.100000*%
%ADD11C,0.300000*%
%ADD12C,0.200000*%
%ADD13C,0.120000*%
%ADD14C,0.150000*%
%ADD15C,0.203200*%
%ADD16C,0.010000*%
G04 APERTURE END LIST*
D10*
D11*
X119628571Y-106357143D02*
X119628571Y-103357143D01*
X119342857Y-105214286D02*
X118485714Y-106357143D01*
X118485714Y-104357143D02*
X119628571Y-105500000D01*
X117200000Y-104357143D02*
X117200000Y-106357143D01*
X117200000Y-104642857D02*
X117057143Y-104500000D01*
X116771429Y-104357143D01*
X116342857Y-104357143D01*
X116057143Y-104500000D01*
X115914286Y-104785714D01*
X115914286Y-106357143D01*
X114057143Y-106357143D02*
X114342857Y-106214286D01*
X114485714Y-106071429D01*
X114628571Y-105785714D01*
X114628571Y-104928571D01*
X114485714Y-104642857D01*
X114342857Y-104500000D01*
X114057143Y-104357143D01*
X113628571Y-104357143D01*
X113342857Y-104500000D01*
X113200000Y-104642857D01*
X113057143Y-104928571D01*
X113057143Y-105785714D01*
X113200000Y-106071429D01*
X113342857Y-106214286D01*
X113628571Y-106357143D01*
X114057143Y-106357143D01*
X111771428Y-106357143D02*
X111771428Y-103357143D01*
X111771428Y-104500000D02*
X111485714Y-104357143D01*
X110914285Y-104357143D01*
X110628571Y-104500000D01*
X110485714Y-104642857D01*
X110342857Y-104928571D01*
X110342857Y-105785714D01*
X110485714Y-106071429D01*
X110628571Y-106214286D01*
X110914285Y-106357143D01*
X111485714Y-106357143D01*
X111771428Y-106214286D01*
X108628571Y-106357143D02*
X108914285Y-106214286D01*
X109057142Y-106071429D01*
X109199999Y-105785714D01*
X109199999Y-104928571D01*
X109057142Y-104642857D01*
X108914285Y-104500000D01*
X108628571Y-104357143D01*
X108199999Y-104357143D01*
X107914285Y-104500000D01*
X107771428Y-104642857D01*
X107628571Y-104928571D01*
X107628571Y-105785714D01*
X107771428Y-106071429D01*
X107914285Y-106214286D01*
X108199999Y-106357143D01*
X108628571Y-106357143D01*
D12*
X111535714Y-124702381D02*
X110869047Y-124702381D01*
X111297619Y-125702381D01*
X109773809Y-124654762D02*
X110630952Y-125940476D01*
X108916666Y-125702381D02*
X109488095Y-125702381D01*
X109202381Y-125702381D02*
X109202381Y-124702381D01*
X109297619Y-124845238D01*
X109392857Y-124940476D01*
X109488095Y-124988095D01*
X108297619Y-124702381D02*
X108202380Y-124702381D01*
X108107142Y-124750000D01*
X108059523Y-124797619D01*
X108011904Y-124892857D01*
X107964285Y-125083333D01*
X107964285Y-125321429D01*
X108011904Y-125511905D01*
X108059523Y-125607143D01*
X108107142Y-125654762D01*
X108202380Y-125702381D01*
X108297619Y-125702381D01*
X108392857Y-125654762D01*
X108440476Y-125607143D01*
X108488095Y-125511905D01*
X108535714Y-125321429D01*
X108535714Y-125083333D01*
X108488095Y-124892857D01*
X108440476Y-124797619D01*
X108392857Y-124750000D01*
X108297619Y-124702381D01*
X106821428Y-124654762D02*
X107678571Y-125940476D01*
X105964285Y-125702381D02*
X106535714Y-125702381D01*
X106250000Y-125702381D02*
X106250000Y-124702381D01*
X106345238Y-124845238D01*
X106440476Y-124940476D01*
X106535714Y-124988095D01*
X105392857Y-125130952D02*
X105488095Y-125083333D01*
X105535714Y-125035714D01*
X105583333Y-124940476D01*
X105583333Y-124892857D01*
X105535714Y-124797619D01*
X105488095Y-124750000D01*
X105392857Y-124702381D01*
X105202380Y-124702381D01*
X105107142Y-124750000D01*
X105059523Y-124797619D01*
X105011904Y-124892857D01*
X105011904Y-124940476D01*
X105059523Y-125035714D01*
X105107142Y-125083333D01*
X105202380Y-125130952D01*
X105392857Y-125130952D01*
X105488095Y-125178571D01*
X105535714Y-125226190D01*
X105583333Y-125321429D01*
X105583333Y-125511905D01*
X105535714Y-125607143D01*
X105488095Y-125654762D01*
X105392857Y-125702381D01*
X105202380Y-125702381D01*
X105107142Y-125654762D01*
X105059523Y-125607143D01*
X105011904Y-125511905D01*
X105011904Y-125321429D01*
X105059523Y-125226190D01*
X105107142Y-125178571D01*
X105202380Y-125130952D01*
X107928571Y-123285714D02*
X107690476Y-123952381D01*
X107452380Y-123285714D01*
X107119047Y-123047619D02*
X107071428Y-123000000D01*
X106976190Y-122952381D01*
X106738094Y-122952381D01*
X106642856Y-123000000D01*
X106595237Y-123047619D01*
X106547618Y-123142857D01*
X106547618Y-123238095D01*
X106595237Y-123380952D01*
X107166666Y-123952381D01*
X106547618Y-123952381D01*
X106119047Y-123857143D02*
X106071428Y-123904762D01*
X106119047Y-123952381D01*
X106166666Y-123904762D01*
X106119047Y-123857143D01*
X106119047Y-123952381D01*
X105166666Y-122952381D02*
X105642857Y-122952381D01*
X105690476Y-123428571D01*
X105642857Y-123380952D01*
X105547619Y-123333333D01*
X105309523Y-123333333D01*
X105214285Y-123380952D01*
X105166666Y-123428571D01*
X105119047Y-123523810D01*
X105119047Y-123761905D01*
X105166666Y-123857143D01*
X105214285Y-123904762D01*
X105309523Y-123952381D01*
X105547619Y-123952381D01*
X105642857Y-123904762D01*
X105690476Y-123857143D01*
D13*
X138000000Y-95850000D02*
X137000000Y-95850000D01*
X137000000Y-94150000D02*
X138000000Y-94150000D01*
X133650000Y-104000000D02*
X133650000Y-103000000D01*
X135350000Y-103000000D02*
X135350000Y-104000000D01*
X145400000Y-117000000D02*
X145400000Y-116000000D01*
X147100000Y-116000000D02*
X147100000Y-117000000D01*
X135350000Y-107750000D02*
X135350000Y-108750000D01*
X133650000Y-108750000D02*
X133650000Y-107750000D01*
X154500000Y-104100000D02*
X153500000Y-104100000D01*
X153500000Y-102400000D02*
X154500000Y-102400000D01*
X145600000Y-95000000D02*
X145600000Y-96000000D01*
X143900000Y-96000000D02*
X143900000Y-95000000D01*
X151900000Y-110000000D02*
X151900000Y-109000000D01*
X153600000Y-109000000D02*
X153600000Y-110000000D01*
X159900000Y-110000000D02*
X159900000Y-109000000D01*
X161600000Y-109000000D02*
X161600000Y-110000000D01*
X146410000Y-66840000D02*
X138590000Y-66840000D01*
X140390000Y-76160000D02*
X140390000Y-76590000D01*
X146410000Y-66840000D02*
X146410000Y-68790000D01*
X146410000Y-71010000D02*
X146410000Y-74240000D01*
X144610000Y-76160000D02*
X145690000Y-76160000D01*
X139310000Y-76160000D02*
X140390000Y-76160000D01*
X138590000Y-71010000D02*
X138590000Y-74240000D01*
X138590000Y-66840000D02*
X138590000Y-68790000D01*
X142870000Y-79900000D02*
X142870000Y-81100000D01*
X144630000Y-81100000D02*
X144630000Y-79900000D01*
X140870000Y-79900000D02*
X140870000Y-81100000D01*
X142630000Y-81100000D02*
X142630000Y-79900000D01*
X155600000Y-86620000D02*
X154400000Y-86620000D01*
X154400000Y-88380000D02*
X155600000Y-88380000D01*
X141600000Y-114370000D02*
X140400000Y-114370000D01*
X140400000Y-116130000D02*
X141600000Y-116130000D01*
X159620000Y-80380000D02*
X154880000Y-80380000D01*
X159620000Y-80380000D02*
X159620000Y-80780000D01*
X154880000Y-80380000D02*
X154880000Y-80780000D01*
X159620000Y-85120000D02*
X159620000Y-84720000D01*
X159620000Y-85120000D02*
X154880000Y-85120000D01*
X154880000Y-85120000D02*
X154880000Y-84720000D01*
X154880000Y-83780000D02*
X154880000Y-81720000D01*
X159620000Y-83780000D02*
X159620000Y-81720000D01*
D14*
X138325000Y-100825000D02*
X138900000Y-100825000D01*
X138325000Y-111175000D02*
X139000000Y-111175000D01*
X148675000Y-111175000D02*
X148000000Y-111175000D01*
X148675000Y-100825000D02*
X148000000Y-100825000D01*
X138325000Y-100825000D02*
X138325000Y-101500000D01*
X148675000Y-100825000D02*
X148675000Y-101500000D01*
X148675000Y-111175000D02*
X148675000Y-110500000D01*
X138325000Y-111175000D02*
X138325000Y-110500000D01*
X138900000Y-100825000D02*
X138900000Y-99550000D01*
D13*
X154100000Y-110850000D02*
X154100000Y-107150000D01*
X154100000Y-107150000D02*
X159400000Y-107150000D01*
X129750000Y-104500000D02*
X129750000Y-101300000D01*
X128250000Y-101300000D02*
X128250000Y-104500000D01*
X128250000Y-101300000D02*
X129750000Y-101300000D01*
X132130000Y-104100000D02*
X132130000Y-102900000D01*
X130370000Y-102900000D02*
X130370000Y-104100000D01*
D14*
X152793113Y-90690000D02*
G75*
G03X152793113Y-90690000I-403113J0D01*
G01*
D15*
X144190000Y-90040000D02*
X151810000Y-90040000D01*
X151810000Y-84960000D02*
X144190000Y-84960000D01*
X144190000Y-84960000D02*
X144190000Y-90040000D01*
X151810000Y-90040000D02*
X151810000Y-84960000D01*
D16*
G36*
X121923601Y-103728348D02*
X124611767Y-103732634D01*
X124613918Y-104738050D01*
X124616070Y-105743467D01*
X123947134Y-105743467D01*
X123947134Y-105083067D01*
X123269800Y-105083067D01*
X123269800Y-105743467D01*
X122600934Y-105743467D01*
X122600934Y-105083067D01*
X123269800Y-105083067D01*
X123947134Y-105083067D01*
X123947134Y-104397267D01*
X121923601Y-104397267D01*
X121923601Y-106429267D01*
X123269800Y-106429267D01*
X123269800Y-107098134D01*
X123947134Y-107098134D01*
X123947134Y-106429267D01*
X125293334Y-106429267D01*
X125293334Y-103051067D01*
X121923601Y-103051067D01*
X121923601Y-103728348D01*
X121923601Y-103728348D01*
G37*
X121923601Y-103728348D02*
X124611767Y-103732634D01*
X124613918Y-104738050D01*
X124616070Y-105743467D01*
X123947134Y-105743467D01*
X123947134Y-105083067D01*
X123269800Y-105083067D01*
X123269800Y-105743467D01*
X122600934Y-105743467D01*
X122600934Y-105083067D01*
X123269800Y-105083067D01*
X123947134Y-105083067D01*
X123947134Y-104397267D01*
X121923601Y-104397267D01*
X121923601Y-106429267D01*
X123269800Y-106429267D01*
X123269800Y-107098134D01*
X123947134Y-107098134D01*
X123947134Y-106429267D01*
X125293334Y-106429267D01*
X125293334Y-103051067D01*
X121923601Y-103051067D01*
X121923601Y-103728348D01*
D14*
X138916666Y-93607143D02*
X138964285Y-93654762D01*
X139107142Y-93702381D01*
X139202380Y-93702381D01*
X139345238Y-93654762D01*
X139440476Y-93559524D01*
X139488095Y-93464286D01*
X139535714Y-93273810D01*
X139535714Y-93130952D01*
X139488095Y-92940476D01*
X139440476Y-92845238D01*
X139345238Y-92750000D01*
X139202380Y-92702381D01*
X139107142Y-92702381D01*
X138964285Y-92750000D01*
X138916666Y-92797619D01*
X137964285Y-93702381D02*
X138535714Y-93702381D01*
X138250000Y-93702381D02*
X138250000Y-92702381D01*
X138345238Y-92845238D01*
X138440476Y-92940476D01*
X138535714Y-92988095D01*
X134666666Y-100857143D02*
X134714285Y-100904762D01*
X134857142Y-100952381D01*
X134952380Y-100952381D01*
X135095238Y-100904762D01*
X135190476Y-100809524D01*
X135238095Y-100714286D01*
X135285714Y-100523810D01*
X135285714Y-100380952D01*
X135238095Y-100190476D01*
X135190476Y-100095238D01*
X135095238Y-100000000D01*
X134952380Y-99952381D01*
X134857142Y-99952381D01*
X134714285Y-100000000D01*
X134666666Y-100047619D01*
X134285714Y-100047619D02*
X134238095Y-100000000D01*
X134142857Y-99952381D01*
X133904761Y-99952381D01*
X133809523Y-100000000D01*
X133761904Y-100047619D01*
X133714285Y-100142857D01*
X133714285Y-100238095D01*
X133761904Y-100380952D01*
X134333333Y-100952381D01*
X133714285Y-100952381D01*
X144857143Y-116333334D02*
X144904762Y-116285715D01*
X144952381Y-116142858D01*
X144952381Y-116047620D01*
X144904762Y-115904762D01*
X144809524Y-115809524D01*
X144714286Y-115761905D01*
X144523810Y-115714286D01*
X144380952Y-115714286D01*
X144190476Y-115761905D01*
X144095238Y-115809524D01*
X144000000Y-115904762D01*
X143952381Y-116047620D01*
X143952381Y-116142858D01*
X144000000Y-116285715D01*
X144047619Y-116333334D01*
X143952381Y-116666667D02*
X143952381Y-117285715D01*
X144333333Y-116952381D01*
X144333333Y-117095239D01*
X144380952Y-117190477D01*
X144428571Y-117238096D01*
X144523810Y-117285715D01*
X144761905Y-117285715D01*
X144857143Y-117238096D01*
X144904762Y-117190477D01*
X144952381Y-117095239D01*
X144952381Y-116809524D01*
X144904762Y-116714286D01*
X144857143Y-116666667D01*
X133107143Y-108083334D02*
X133154762Y-108035715D01*
X133202381Y-107892858D01*
X133202381Y-107797620D01*
X133154762Y-107654762D01*
X133059524Y-107559524D01*
X132964286Y-107511905D01*
X132773810Y-107464286D01*
X132630952Y-107464286D01*
X132440476Y-107511905D01*
X132345238Y-107559524D01*
X132250000Y-107654762D01*
X132202381Y-107797620D01*
X132202381Y-107892858D01*
X132250000Y-108035715D01*
X132297619Y-108083334D01*
X132535714Y-108940477D02*
X133202381Y-108940477D01*
X132154762Y-108702381D02*
X132869048Y-108464286D01*
X132869048Y-109083334D01*
X154166666Y-101857143D02*
X154214285Y-101904762D01*
X154357142Y-101952381D01*
X154452380Y-101952381D01*
X154595238Y-101904762D01*
X154690476Y-101809524D01*
X154738095Y-101714286D01*
X154785714Y-101523810D01*
X154785714Y-101380952D01*
X154738095Y-101190476D01*
X154690476Y-101095238D01*
X154595238Y-101000000D01*
X154452380Y-100952381D01*
X154357142Y-100952381D01*
X154214285Y-101000000D01*
X154166666Y-101047619D01*
X153261904Y-100952381D02*
X153738095Y-100952381D01*
X153785714Y-101428571D01*
X153738095Y-101380952D01*
X153642857Y-101333333D01*
X153404761Y-101333333D01*
X153309523Y-101380952D01*
X153261904Y-101428571D01*
X153214285Y-101523810D01*
X153214285Y-101761905D01*
X153261904Y-101857143D01*
X153309523Y-101904762D01*
X153404761Y-101952381D01*
X153642857Y-101952381D01*
X153738095Y-101904762D01*
X153785714Y-101857143D01*
X143107143Y-95083334D02*
X143154762Y-95035715D01*
X143202381Y-94892858D01*
X143202381Y-94797620D01*
X143154762Y-94654762D01*
X143059524Y-94559524D01*
X142964286Y-94511905D01*
X142773810Y-94464286D01*
X142630952Y-94464286D01*
X142440476Y-94511905D01*
X142345238Y-94559524D01*
X142250000Y-94654762D01*
X142202381Y-94797620D01*
X142202381Y-94892858D01*
X142250000Y-95035715D01*
X142297619Y-95083334D01*
X142202381Y-95940477D02*
X142202381Y-95750000D01*
X142250000Y-95654762D01*
X142297619Y-95607143D01*
X142440476Y-95511905D01*
X142630952Y-95464286D01*
X143011905Y-95464286D01*
X143107143Y-95511905D01*
X143154762Y-95559524D01*
X143202381Y-95654762D01*
X143202381Y-95845239D01*
X143154762Y-95940477D01*
X143107143Y-95988096D01*
X143011905Y-96035715D01*
X142773810Y-96035715D01*
X142678571Y-95988096D01*
X142630952Y-95940477D01*
X142583333Y-95845239D01*
X142583333Y-95654762D01*
X142630952Y-95559524D01*
X142678571Y-95511905D01*
X142773810Y-95464286D01*
X152916666Y-113107143D02*
X152964285Y-113154762D01*
X153107142Y-113202381D01*
X153202380Y-113202381D01*
X153345238Y-113154762D01*
X153440476Y-113059524D01*
X153488095Y-112964286D01*
X153535714Y-112773810D01*
X153535714Y-112630952D01*
X153488095Y-112440476D01*
X153440476Y-112345238D01*
X153345238Y-112250000D01*
X153202380Y-112202381D01*
X153107142Y-112202381D01*
X152964285Y-112250000D01*
X152916666Y-112297619D01*
X152583333Y-112202381D02*
X151916666Y-112202381D01*
X152345238Y-113202381D01*
X160916666Y-113107143D02*
X160964285Y-113154762D01*
X161107142Y-113202381D01*
X161202380Y-113202381D01*
X161345238Y-113154762D01*
X161440476Y-113059524D01*
X161488095Y-112964286D01*
X161535714Y-112773810D01*
X161535714Y-112630952D01*
X161488095Y-112440476D01*
X161440476Y-112345238D01*
X161345238Y-112250000D01*
X161202380Y-112202381D01*
X161107142Y-112202381D01*
X160964285Y-112250000D01*
X160916666Y-112297619D01*
X160345238Y-112630952D02*
X160440476Y-112583333D01*
X160488095Y-112535714D01*
X160535714Y-112440476D01*
X160535714Y-112392857D01*
X160488095Y-112297619D01*
X160440476Y-112250000D01*
X160345238Y-112202381D01*
X160154761Y-112202381D01*
X160059523Y-112250000D01*
X160011904Y-112297619D01*
X159964285Y-112392857D01*
X159964285Y-112440476D01*
X160011904Y-112535714D01*
X160059523Y-112583333D01*
X160154761Y-112630952D01*
X160345238Y-112630952D01*
X160440476Y-112678571D01*
X160488095Y-112726190D01*
X160535714Y-112821429D01*
X160535714Y-113011905D01*
X160488095Y-113107143D01*
X160440476Y-113154762D01*
X160345238Y-113202381D01*
X160154761Y-113202381D01*
X160059523Y-113154762D01*
X160011904Y-113107143D01*
X159964285Y-113011905D01*
X159964285Y-112821429D01*
X160011904Y-112726190D01*
X160059523Y-112678571D01*
X160154761Y-112630952D01*
X142833333Y-70952381D02*
X142833333Y-71666667D01*
X142880953Y-71809524D01*
X142976191Y-71904762D01*
X143119048Y-71952381D01*
X143214286Y-71952381D01*
X141833333Y-71952381D02*
X142404762Y-71952381D01*
X142119048Y-71952381D02*
X142119048Y-70952381D01*
X142214286Y-71095238D01*
X142309524Y-71190476D01*
X142404762Y-71238095D01*
X145902381Y-80333334D02*
X145426190Y-80000000D01*
X145902381Y-79761905D02*
X144902381Y-79761905D01*
X144902381Y-80142858D01*
X144950000Y-80238096D01*
X144997619Y-80285715D01*
X145092857Y-80333334D01*
X145235714Y-80333334D01*
X145330952Y-80285715D01*
X145378571Y-80238096D01*
X145426190Y-80142858D01*
X145426190Y-79761905D01*
X145902381Y-81285715D02*
X145902381Y-80714286D01*
X145902381Y-81000000D02*
X144902381Y-81000000D01*
X145045238Y-80904762D01*
X145140476Y-80809524D01*
X145188095Y-80714286D01*
X140452381Y-80333334D02*
X139976190Y-80000000D01*
X140452381Y-79761905D02*
X139452381Y-79761905D01*
X139452381Y-80142858D01*
X139500000Y-80238096D01*
X139547619Y-80285715D01*
X139642857Y-80333334D01*
X139785714Y-80333334D01*
X139880952Y-80285715D01*
X139928571Y-80238096D01*
X139976190Y-80142858D01*
X139976190Y-79761905D01*
X139547619Y-80714286D02*
X139500000Y-80761905D01*
X139452381Y-80857143D01*
X139452381Y-81095239D01*
X139500000Y-81190477D01*
X139547619Y-81238096D01*
X139642857Y-81285715D01*
X139738095Y-81285715D01*
X139880952Y-81238096D01*
X140452381Y-80666667D01*
X140452381Y-81285715D01*
X155166666Y-89702381D02*
X155500000Y-89226190D01*
X155738095Y-89702381D02*
X155738095Y-88702381D01*
X155357142Y-88702381D01*
X155261904Y-88750000D01*
X155214285Y-88797619D01*
X155166666Y-88892857D01*
X155166666Y-89035714D01*
X155214285Y-89130952D01*
X155261904Y-89178571D01*
X155357142Y-89226190D01*
X155738095Y-89226190D01*
X154833333Y-88702381D02*
X154214285Y-88702381D01*
X154547619Y-89083333D01*
X154404761Y-89083333D01*
X154309523Y-89130952D01*
X154261904Y-89178571D01*
X154214285Y-89273810D01*
X154214285Y-89511905D01*
X154261904Y-89607143D01*
X154309523Y-89654762D01*
X154404761Y-89702381D01*
X154690476Y-89702381D01*
X154785714Y-89654762D01*
X154833333Y-89607143D01*
X141166666Y-117402381D02*
X141500000Y-116926190D01*
X141738095Y-117402381D02*
X141738095Y-116402381D01*
X141357142Y-116402381D01*
X141261904Y-116450000D01*
X141214285Y-116497619D01*
X141166666Y-116592857D01*
X141166666Y-116735714D01*
X141214285Y-116830952D01*
X141261904Y-116878571D01*
X141357142Y-116926190D01*
X141738095Y-116926190D01*
X140309523Y-116735714D02*
X140309523Y-117402381D01*
X140547619Y-116354762D02*
X140785714Y-117069048D01*
X140166666Y-117069048D01*
X158583333Y-83154762D02*
X158440476Y-83202381D01*
X158202380Y-83202381D01*
X158107142Y-83154762D01*
X158059523Y-83107143D01*
X158011904Y-83011905D01*
X158011904Y-82916667D01*
X158059523Y-82821429D01*
X158107142Y-82773810D01*
X158202380Y-82726190D01*
X158392857Y-82678571D01*
X158488095Y-82630952D01*
X158535714Y-82583333D01*
X158583333Y-82488095D01*
X158583333Y-82392857D01*
X158535714Y-82297619D01*
X158488095Y-82250000D01*
X158392857Y-82202381D01*
X158154761Y-82202381D01*
X158011904Y-82250000D01*
X157678571Y-82202381D02*
X157440476Y-83202381D01*
X157249999Y-82488095D01*
X157059523Y-83202381D01*
X156821428Y-82202381D01*
X156392857Y-83202381D02*
X156202381Y-83202381D01*
X156107142Y-83154762D01*
X156059523Y-83107143D01*
X155964285Y-82964286D01*
X155916666Y-82773810D01*
X155916666Y-82392857D01*
X155964285Y-82297619D01*
X156011904Y-82250000D01*
X156107142Y-82202381D01*
X156297619Y-82202381D01*
X156392857Y-82250000D01*
X156440476Y-82297619D01*
X156488095Y-82392857D01*
X156488095Y-82630952D01*
X156440476Y-82726190D01*
X156392857Y-82773810D01*
X156297619Y-82821429D01*
X156107142Y-82821429D01*
X156011904Y-82773810D01*
X155964285Y-82726190D01*
X155916666Y-82630952D01*
X142952381Y-105238095D02*
X143761905Y-105238095D01*
X143857143Y-105285714D01*
X143904762Y-105333333D01*
X143952381Y-105428571D01*
X143952381Y-105619048D01*
X143904762Y-105714286D01*
X143857143Y-105761905D01*
X143761905Y-105809524D01*
X142952381Y-105809524D01*
X143952381Y-106809524D02*
X143952381Y-106238095D01*
X143952381Y-106523809D02*
X142952381Y-106523809D01*
X143095238Y-106428571D01*
X143190476Y-106333333D01*
X143238095Y-106238095D01*
X156976191Y-106476190D02*
X156976191Y-106952381D01*
X157309524Y-105952381D02*
X156976191Y-106476190D01*
X156642857Y-105952381D01*
X155785714Y-106952381D02*
X156357143Y-106952381D01*
X156071429Y-106952381D02*
X156071429Y-105952381D01*
X156166667Y-106095238D01*
X156261905Y-106190476D01*
X156357143Y-106238095D01*
X127752381Y-102761905D02*
X126752381Y-102761905D01*
X126752381Y-103000000D01*
X126800000Y-103142858D01*
X126895238Y-103238096D01*
X126990476Y-103285715D01*
X127180952Y-103333334D01*
X127323810Y-103333334D01*
X127514286Y-103285715D01*
X127609524Y-103238096D01*
X127704762Y-103142858D01*
X127752381Y-103000000D01*
X127752381Y-102761905D01*
X127752381Y-104285715D02*
X127752381Y-103714286D01*
X127752381Y-104000000D02*
X126752381Y-104000000D01*
X126895238Y-103904762D01*
X126990476Y-103809524D01*
X127038095Y-103714286D01*
X131416666Y-100952381D02*
X131750000Y-100476190D01*
X131988095Y-100952381D02*
X131988095Y-99952381D01*
X131607142Y-99952381D01*
X131511904Y-100000000D01*
X131464285Y-100047619D01*
X131416666Y-100142857D01*
X131416666Y-100285714D01*
X131464285Y-100380952D01*
X131511904Y-100428571D01*
X131607142Y-100476190D01*
X131988095Y-100476190D01*
X130511904Y-99952381D02*
X130988095Y-99952381D01*
X131035714Y-100428571D01*
X130988095Y-100380952D01*
X130892857Y-100333333D01*
X130654761Y-100333333D01*
X130559523Y-100380952D01*
X130511904Y-100428571D01*
X130464285Y-100523810D01*
X130464285Y-100761905D01*
X130511904Y-100857143D01*
X130559523Y-100904762D01*
X130654761Y-100952381D01*
X130892857Y-100952381D01*
X130988095Y-100904762D01*
X131035714Y-100857143D01*
D15*
X149233714Y-84052857D02*
X149282095Y-84101238D01*
X149427238Y-84149619D01*
X149524000Y-84149619D01*
X149669142Y-84101238D01*
X149765904Y-84004476D01*
X149814285Y-83907714D01*
X149862666Y-83714190D01*
X149862666Y-83569048D01*
X149814285Y-83375524D01*
X149765904Y-83278762D01*
X149669142Y-83182000D01*
X149524000Y-83133619D01*
X149427238Y-83133619D01*
X149282095Y-83182000D01*
X149233714Y-83230381D01*
X148604761Y-83133619D02*
X148411238Y-83133619D01*
X148314476Y-83182000D01*
X148217714Y-83278762D01*
X148169333Y-83472286D01*
X148169333Y-83810952D01*
X148217714Y-84004476D01*
X148314476Y-84101238D01*
X148411238Y-84149619D01*
X148604761Y-84149619D01*
X148701523Y-84101238D01*
X148798285Y-84004476D01*
X148846666Y-83810952D01*
X148846666Y-83472286D01*
X148798285Y-83278762D01*
X148701523Y-83182000D01*
X148604761Y-83133619D01*
X147733904Y-84149619D02*
X147733904Y-83133619D01*
X147153333Y-84149619D01*
X147153333Y-83133619D01*
X146137333Y-84149619D02*
X146717904Y-84149619D01*
X146427618Y-84149619D02*
X146427618Y-83133619D01*
X146524380Y-83278762D01*
X146621142Y-83375524D01*
X146717904Y-83423905D01*
M02*
